<?xml version="1.0" encoding="utf-8"?>
<!-- Generator: Adobe Illustrator 22.0.0, SVG Export Plug-In . SVG Version: 6.00 Build 0)  -->
<svg version="1.1" id="Calque_1" xmlns="http://www.w3.org/2000/svg" xmlns:xlink="http://www.w3.org/1999/xlink" x="0px" y="0px"
	 viewBox="0 0 69 69" style="enable-background:new 0 0 69 69;" xml:space="preserve">
<style type="text/css">
	.st0{fill:#D7265D;}
</style>
<g>
	<path class="st0" d="M30,23.4l-1.7-1.2c0.7-1,1.1-2.2,1.1-3.5c0-4.7-3.9-10.5-6.3-10.5c-0.8,0-2,0.8-3.1,2.3l-1.6-1.3
		C19.3,7.7,21,6,23,6c4,0,8.4,7.4,8.4,12.6C31.4,20.4,30.9,22,30,23.4L30,23.4z M23,27.1c-4.6,0-8.4-3.8-8.4-8.4
		c0-2.3,0.8-5.1,2.3-7.6l1.8,1.1c-1.3,2.2-2,4.6-2,6.6c0,3.5,2.8,6.3,6.3,6.3c1.5,0,2.9-0.5,4-1.5l1.3,1.6
		C26.8,26.4,24.9,27.1,23,27.1L23,27.1z M26.9,30.7c-0.5,0.2-0.8,0.6-0.8,1V44h2.1v17.9c0,2.9-2.3,5.3-5.2,5.3
		c-2.9,0-5.2-2.4-5.2-5.3V44h2.1V31.7c0-0.5-0.3-0.9-0.8-1c-5.2-1.7-8.6-6.5-8.6-12c0-6.6,5.4-16.9,12.6-16.9s12.6,10.2,12.6,16.9
		C35.5,24.2,32.1,29,26.9,30.7L26.9,30.7z M19.8,61.9c0,1.7,1.4,3.2,3.1,3.2c1.7,0,3.1-1.4,3.1-3.2V50.3h-6.3V61.9L19.8,61.9z
		 M19.8,48.2h6.3v-2.1h-6.3V48.2L19.8,48.2z M23,3.9c-5.8,0-10.5,8.9-10.5,14.8c0,4.6,2.9,8.6,7.2,10c1.3,0.4,2.2,1.7,2.2,3V44H24
		V31.7c0-1.4,0.9-2.6,2.2-3c4.3-1.4,7.2-5.4,7.2-10C33.5,12.9,28.8,3.9,23,3.9L23,3.9z M21.9,63v-2.1H24V63H21.9L21.9,63z M45,8.2V6
		h2.1v2.1H45L45,8.2z M54.7,67.2H37.3c-2.1,0-3.9-1.8-3.9-3.9c0-0.3,0-0.6,0.1-0.8l4.8-22.3c0.3-1.4,1.6-2.5,3.1-2.5h1.5V25h-2.1
		V7.1c0-2.9,2.3-5.3,5.2-5.3c2.9,0,5.2,2.4,5.2,5.3V25h-2.1v12.6h1.5c1.5,0,2.8,1,3.1,2.5l4.8,22.3c0.1,0.3,0.1,0.5,0.1,0.8
		C58.6,65.4,56.8,67.2,54.7,67.2L54.7,67.2z M49.2,7.1c0-1.7-1.4-3.2-3.1-3.2c-1.7,0-3.1,1.4-3.1,3.2v11.6h6.3V7.1L49.2,7.1z
		 M49.2,20.8h-6.3v2.1h6.3V20.8L49.2,20.8z M45,25v12.6h2.1V25H45L45,25z M56.4,62.9L52.4,44h-3.2v-2.1h2.8l-0.3-1.3
		c-0.1-0.5-0.5-0.8-1-0.8h-9.2c-0.5,0-0.9,0.3-1,0.8l-0.3,1.3h6.9V44h-7.4l-4.1,18.9c0,0.1,0,0.3,0,0.4c0,1,0.8,1.8,1.8,1.8h17.4
		c1,0,1.8-0.8,1.8-1.8C56.5,63.1,56.5,63,56.4,62.9L56.4,62.9z M40.8,63V48.2h2.1V63H40.8L40.8,63z M45,63V48.2h2.1V63H45L45,63z
		 M49.2,63V48.2h2.1V63H49.2L49.2,63z"/>
</g>
</svg>
