<?xml version="1.0" encoding="utf-8"?>
<!-- Generator: Adobe Illustrator 22.0.0, SVG Export Plug-In . SVG Version: 6.00 Build 0)  -->
<svg version="1.1" id="Calque_1" xmlns="http://www.w3.org/2000/svg" xmlns:xlink="http://www.w3.org/1999/xlink" x="0px" y="0px"
	 viewBox="0 0 69 69" style="enable-background:new 0 0 69 69;" xml:space="preserve">
<style type="text/css">
	.st0{fill:#009EA1;}
</style>
<g>
	<path class="st0" d="M66.3,68v-2.2h2.2V68H66.3L66.3,68z M0.5,68v-2.2h2.2V68H0.5L0.5,68z M3.8,68v-2.2h2.5l5.6-19.1
		c1.2-4.2,5.1-7.1,9.5-7.1l0.6-2.2H7.1c-3.6,0-6.6-2.9-6.6-6.5c0-3.3,2.4-6,5.6-6.4C6,24.1,6,23.7,6,23.3c0-5.4,4.4-9.8,9.9-9.8
		c3.9,0,7.4,2.3,9,5.7c2.3-0.6,4.8-0.1,6.6,1.3c0.6-0.2,1.3-0.3,1.9-0.4V1l19.5,8.3l-17.3,6.1v4.7c3.9,0.4,7.3,3.2,8.4,7L49,44.3
		c3.4,0.8,6.1,3.3,7.3,6.6l5.2,14.9h2.5V68H3.8L3.8,68z M8.5,65.8h23l1.4-4L30.1,52c-0.6,0.4-1.3,0.8-2.1,0.8
		c-2.3,0-3.4-2.1-4.3-3.9c-0.8-1.7-1.4-2.7-2.3-2.7c-0.9,0-1.5,1-2.3,2.7c-0.9,1.7-1.9,3.9-4.3,3.9c-0.9,0-1.6-0.3-2.1-0.8L8.5,65.8
		L8.5,65.8z M21.3,41.9c-3.4,0-6.4,2.3-7.4,5.5l-0.6,2.2c0.6,0.9,1,1.1,1.4,1.1c0.9,0,1.5-1,2.3-2.7c0.9-1.7,1.9-3.9,4.3-3.9
		c2.3,0,3.4,2.1,4.3,3.9c0.8,1.7,1.4,2.7,2.3,2.7c0.4,0,0.8-0.1,1.4-1.1l-0.6-2.2C27.8,44.1,24.7,41.9,21.3,41.9L21.3,41.9z
		 M24.6,21.6l-1.1,0.5L23.1,21c-1-3.1-4-5.2-7.3-5.2c-4.2,0-7.7,3.4-7.7,7.6c0,0.4,0,0.8,0.1,1.2c3.1,0.6,5.4,3.2,5.4,6.4h-2.2
		c0-2.4-2-4.4-4.4-4.4c-2.4,0-4.4,2-4.4,4.4c0,2.4,2,4.4,4.4,4.4h15.5l2.4-8.2c0.7-2.3,2.2-4.2,4.1-5.5C27.7,21.1,26.1,21,24.6,21.6
		L24.6,21.6z M46.9,9.1L35.6,4.3v8.8L46.9,9.1L46.9,9.1z M41.9,27.7c-1-3.2-4-5.5-7.4-5.5s-6.4,2.3-7.4,5.5l-1.1,3.6
		c0.7,1.3,1.2,1.8,1.8,1.8c0.9,0,1.5-1,2.3-2.7c0.9-1.7,1.9-3.9,4.3-3.9c2.3,0,3.4,2.1,4.3,3.9c0.8,1.7,1.4,2.7,2.3,2.7
		c0.6,0,1.1-0.5,1.9-1.8L41.9,27.7L41.9,27.7z M43.7,34.1c-0.6,0.7-1.5,1.2-2.7,1.2c-2.3,0-3.4-2.1-4.3-3.9
		c-0.8-1.7-1.4-2.7-2.3-2.7c-0.9,0-1.5,1-2.3,2.7c-0.9,1.7-1.9,3.9-4.3,3.9c-1.2,0-2-0.5-2.6-1.2l-1.7,5.9c3.4,0.8,6.3,3.4,7.3,6.8
		l3.4,11.5l2.6-7.3c1.5-4.1,5.4-6.9,9.8-6.9c0,0,0.1,0,0.1,0L43.7,34.1L43.7,34.1z M54.3,51.7c-1.1-3.3-4.2-5.4-7.7-5.4
		s-6.6,2.2-7.7,5.4l-0.6,1.7c0.6,1.1,1.1,1.6,1.7,1.6c0.9,0,1.5-1,2.3-2.7c0.9-1.7,1.9-3.9,4.3-3.9c2.3,0,3.4,2.1,4.3,3.9
		c0.8,1.7,1.4,2.7,2.3,2.7c0.6,0,1.1-0.4,1.7-1.6L54.3,51.7L54.3,51.7z M55.8,55.9c-0.6,0.7-1.5,1.2-2.6,1.2c-2.3,0-3.4-2.1-4.3-3.9
		c-0.8-1.7-1.4-2.7-2.3-2.7c-0.9,0-1.5,1-2.3,2.7c-0.9,1.7-1.9,3.9-4.3,3.9c-1.2,0-2-0.5-2.6-1.2l-3.5,9.9h25.4L55.8,55.9L55.8,55.9
		z"/>
</g>
</svg>
