<?xml version="1.0" encoding="utf-8"?>
<!-- Generator: Adobe Illustrator 22.0.0, SVG Export Plug-In . SVG Version: 6.00 Build 0)  -->
<svg version="1.1" id="Calque_1" xmlns="http://www.w3.org/2000/svg" xmlns:xlink="http://www.w3.org/1999/xlink" x="0px" y="0px"
	 viewBox="0 0 69 69" style="enable-background:new 0 0 69 69;" xml:space="preserve">
<style type="text/css">
	.st0{fill:#FAC32B;}
</style>
<g>
	<path class="st0" d="M34.5,44.5c-5.5,0-9.9-4.5-9.9-10c0-5.5,4.4-10,9.9-10c5.5,0,9.9,4.5,9.9,10C44.4,40,40,44.5,34.5,44.5
		L34.5,44.5z M34.5,26.7c-4.3,0-7.7,3.5-7.7,7.8c0,4.3,3.4,7.7,7.7,7.7c4.2,0,7.7-3.5,7.7-7.7C42.2,30.2,38.8,26.7,34.5,26.7
		L34.5,26.7z M62,36.1c0,0.5-0.4,0.9-0.9,1l-3,0.5h0c-0.5,0.1-0.8,0.4-0.9,0.9c-0.1,0.5,0.1,0.9,0.5,1.2l2.6,1.5
		c0.4,0.3,0.7,0.8,0.5,1.3c-0.3,1-0.7,2-1.1,3c-0.2,0.5-0.7,0.7-1.2,0.6l-3-0.5c-0.5-0.1-0.9,0.1-1.2,0.5c-0.2,0.4-0.2,0.9,0.1,1.3
		l1.9,2.3c0.3,0.4,0.3,1,0,1.4c-0.6,0.9-1.3,1.7-2,2.4c-0.4,0.4-0.9,0.5-1.4,0.2l-2.6-1.5c-0.4-0.2-0.9-0.2-1.3,0.1
		c-0.4,0.3-0.5,0.8-0.3,1.2l1,2.8c0.2,0.5,0,1-0.4,1.3c-0.9,0.6-1.8,1.1-2.7,1.6c-0.5,0.2-1,0.1-1.3-0.3l-1.9-2.3
		c-0.3-0.4-0.8-0.5-1.2-0.3c-0.4,0.2-0.7,0.6-0.7,1l0,3c0,0.5-0.3,1-0.8,1.1c-1,0.2-2.1,0.4-3.1,0.6c0,0-0.1,0-0.1,0
		c-0.5,0-0.9-0.3-1-0.7l-1-2.8c-0.2-0.4-0.6-0.7-1-0.7c-0.5,0-0.9,0.3-1,0.7l-1,2.8c-0.2,0.5-0.7,0.8-1.2,0.7
		c-1-0.1-2.1-0.3-3.1-0.6c-0.5-0.1-0.9-0.6-0.8-1.1l0-3c0-0.5-0.3-0.9-0.7-1c-0.4-0.2-0.9,0-1.2,0.3l-1.9,2.3
		c-0.3,0.4-0.9,0.5-1.3,0.3c-0.9-0.5-1.8-1-2.7-1.6c-0.4-0.3-0.6-0.8-0.4-1.3l1-2.8c0.2-0.4,0-0.9-0.3-1.2c-0.4-0.3-0.9-0.3-1.3-0.1
		l-2.6,1.5c-0.4,0.3-1,0.2-1.4-0.2c-0.7-0.8-1.4-1.6-2-2.4c-0.3-0.4-0.3-1,0-1.4l1.9-2.3c0.3-0.4,0.3-0.9,0.1-1.3
		c-0.2-0.4-0.7-0.6-1.1-0.5l-3,0.5c-0.5,0.1-1-0.2-1.2-0.7c-0.4-1-0.8-2-1.1-3c-0.1-0.5,0.1-1,0.5-1.3l2.6-1.5
		c0.4-0.2,0.6-0.7,0.5-1.2c-0.1-0.5-0.4-0.8-0.9-0.9l-3-0.5c-0.5-0.1-0.9-0.5-0.9-1c0-0.5,0-1.1,0-1.6c0-0.5,0-1.1,0-1.6
		c0-0.5,0.4-0.9,0.9-1l3-0.5c0.5-0.1,0.8-0.4,0.9-0.9c0.1-0.5-0.1-0.9-0.5-1.2l-2.6-1.5C8.2,27.6,8,27,8.2,26.5c0.3-1,0.7-2,1.1-3
		c0.2-0.5,0.7-0.7,1.2-0.7l3,0.5c0.5,0.1,0.9-0.1,1.2-0.5c0.2-0.4,0.2-0.9-0.1-1.3l-1.9-2.3c-0.3-0.4-0.3-1,0-1.4
		c0.6-0.9,1.3-1.7,2-2.4c0.4-0.4,0.9-0.5,1.4-0.2l2.6,1.5c0.4,0.2,0.9,0.2,1.3-0.1c0.4-0.3,0.5-0.8,0.3-1.2l-1-2.8
		c-0.2-0.5,0-1,0.4-1.3c0.9-0.6,1.8-1.1,2.7-1.6c0.5-0.2,1-0.1,1.3,0.3l1.9,2.3c0.3,0.4,0.8,0.5,1.2,0.3c0.4-0.2,0.7-0.6,0.7-1l0-3
		c0-0.5,0.3-1,0.8-1.1c1-0.2,2.1-0.4,3.1-0.6c0.5-0.1,1,0.2,1.2,0.7l1,2.8c0.2,0.4,0.6,0.7,1,0.7s0.9-0.3,1-0.7l1-2.9
		c0.2-0.5,0.7-0.8,1.2-0.7c1,0.1,2.1,0.3,3.1,0.6c0.5,0.1,0.8,0.6,0.8,1.1l0,3c0,0.5,0.3,0.9,0.7,1c0.4,0.2,0.9,0,1.2-0.3l1.9-2.3
		c0.3-0.4,0.9-0.5,1.3-0.3c0.9,0.5,1.8,1,2.7,1.6c0.4,0.3,0.6,0.8,0.4,1.3l-1,2.8c-0.2,0.4,0,0.9,0.3,1.2c0.4,0.3,0.9,0.3,1.3,0.1
		l2.6-1.5c0.4-0.3,1-0.2,1.4,0.2c0.7,0.8,1.4,1.6,2,2.4c0.3,0.4,0.3,1,0,1.4l-1.9,2.3c-0.3,0.4-0.3,0.9-0.1,1.3
		c0.2,0.4,0.7,0.6,1.2,0.5l3-0.5c0.5-0.1,1,0.2,1.2,0.7c0.4,1,0.8,2,1.1,3c0.1,0.5-0.1,1-0.5,1.3l-2.6,1.5c-0.4,0.2-0.6,0.7-0.5,1.2
		c0.1,0.5,0.4,0.8,0.9,0.9l3,0.5c0.5,0.1,0.9,0.5,0.9,1c0,0.5,0,1.1,0,1.6C62,35,62,35.6,62,36.1L62,36.1z M59.8,33.9l-2.1-0.4
		c-1.4-0.2-2.5-1.3-2.7-2.7c-0.2-1.4,0.4-2.8,1.6-3.5l1.8-1.1c-0.1-0.4-0.3-0.7-0.4-1.1L56,25.6c-1.4,0.3-2.8-0.4-3.4-1.6
		c-0.7-1.2-0.6-2.7,0.3-3.8l1.4-1.6c-0.2-0.3-0.5-0.6-0.8-0.9l-1.8,1.1c-1.2,0.7-2.7,0.6-3.8-0.3c-1.1-0.9-1.5-2.4-1-3.7l0.7-2
		c-0.3-0.2-0.7-0.4-1-0.6l-1.4,1.6c-0.9,1.1-2.4,1.5-3.7,1c-1.3-0.5-2.2-1.7-2.2-3.1l0-2.1c-0.4-0.1-0.8-0.1-1.1-0.2l-0.7,2
		c-0.5,1.3-1.7,2.2-3.1,2.2c-1.4,0-2.6-0.9-3.1-2.2l-0.7-2c-0.4,0.1-0.8,0.1-1.1,0.2l0,2.1c0,1.4-0.9,2.7-2.2,3.1
		c-1.3,0.5-2.8,0.1-3.7-1l-1.4-1.6c-0.3,0.2-0.7,0.4-1,0.6l0.7,2c0.5,1.3,0.1,2.8-1,3.7c-1.1,0.9-2.6,1-3.8,0.3l-1.8-1.1
		c-0.3,0.3-0.5,0.6-0.8,0.9l1.4,1.6c0.9,1.1,1,2.6,0.3,3.8c-0.7,1.2-2.1,1.9-3.4,1.6l-2.1-0.4c-0.1,0.4-0.3,0.7-0.4,1.1l1.8,1.1
		c1.2,0.7,1.9,2.1,1.6,3.5c-0.2,1.4-1.3,2.5-2.7,2.7l-2.1,0.4c0,0.2,0,0.4,0,0.6c0,0.2,0,0.4,0,0.6l2.1,0.4c1.4,0.2,2.5,1.3,2.7,2.7
		c0.2,1.4-0.4,2.8-1.6,3.5l-1.8,1.1c0.1,0.4,0.3,0.7,0.4,1.1l2.1-0.4c1.4-0.3,2.8,0.4,3.4,1.6c0.7,1.2,0.6,2.7-0.3,3.8l-1.4,1.6
		c0.2,0.3,0.5,0.6,0.8,0.9l1.8-1.1c1.2-0.7,2.7-0.6,3.8,0.3c1.1,0.9,1.5,2.4,1,3.7l-0.7,2c0.3,0.2,0.7,0.4,1,0.6l1.4-1.6
		c0.9-1.1,2.4-1.5,3.7-1c1.3,0.5,2.2,1.7,2.2,3.1l0,2.1c0.4,0.1,0.8,0.1,1.1,0.2l0.7-2c0.5-1.3,1.7-2.2,3.1-2.2
		c1.4,0,2.6,0.9,3.1,2.2l0.7,2c0.4-0.1,0.8-0.1,1.1-0.2l0-2.1c0-1.4,0.9-2.6,2.2-3.1c1.3-0.5,2.8-0.1,3.7,1l1.4,1.6
		c0.3-0.2,0.7-0.4,1-0.6l-0.7-2c-0.5-1.3-0.1-2.8,1-3.7c1.1-0.9,2.6-1,3.8-0.3l1.8,1.1c0.3-0.3,0.5-0.6,0.8-0.9l-1.4-1.6
		c-0.9-1.1-1-2.6-0.3-3.8c0.7-1.2,2.1-1.9,3.4-1.6l2.1,0.4c0.1-0.4,0.3-0.7,0.4-1.1l-1.8-1.1l0,0c-1.2-0.7-1.9-2.1-1.6-3.5
		c0.2-1.4,1.3-2.5,2.7-2.7l2.1-0.4c0-0.2,0-0.4,0-0.6C59.8,34.3,59.8,34.1,59.8,33.9L59.8,33.9z M36.7,22.3h-4.4
		c-1.8,0-3.3-1.5-3.3-3.3c0-1.8,1.5-3.3,3.3-3.3h4.4c1.8,0,3.3,1.5,3.3,3.3C40,20.8,38.5,22.3,36.7,22.3L36.7,22.3z M36.7,17.9h-4.4
		c-0.6,0-1.1,0.5-1.1,1.1c0,0.6,0.5,1.1,1.1,1.1h4.4c0.6,0,1.1-0.5,1.1-1.1C37.8,18.4,37.3,17.9,36.7,17.9L36.7,17.9z M25.1,26.5
		l-2.2,3.8c-0.4,0.8-1.2,1.3-2,1.6c-0.3,0.1-0.6,0.1-0.9,0.1c-0.6,0-1.1-0.2-1.6-0.4h0c-0.8-0.4-1.3-1.2-1.5-2
		c-0.2-0.9-0.1-1.8,0.3-2.5l2.2-3.8c0.9-1.6,2.9-2.1,4.5-1.2C25.5,22.9,26,24.9,25.1,26.5L25.1,26.5z M23.2,24.3
		c-0.2-0.3-0.6-0.6-1-0.6c-0.1,0-0.2,0-0.3,0c-0.3,0.1-0.5,0.3-0.7,0.5l-2.2,3.8c-0.2,0.3-0.2,0.8,0,1.1c0.2,0.3,0.6,0.6,1,0.6
		c0.4,0,0.8-0.2,1-0.6l2.2-3.8C23.4,25,23.4,24.6,23.2,24.3L23.2,24.3z M25.1,45.8c-0.6,1-1.7,1.7-2.9,1.7c-0.3,0-0.6,0-0.9-0.1
		c-0.8-0.2-1.6-0.8-2-1.6L17.2,42c-0.9-1.6-0.4-3.6,1.2-4.5c1.6-0.9,3.6-0.4,4.5,1.2l2.2,3.8C25.7,43.5,25.7,44.8,25.1,45.8
		L25.1,45.8z M23.2,43.6L21,39.8c-0.2-0.3-0.6-0.6-1-0.6c-0.4,0-0.8,0.2-1,0.6c-0.2,0.3-0.2,0.8,0,1.1l2.2,3.8
		c0.3,0.5,1,0.7,1.5,0.4l0,0c0.3-0.1,0.4-0.4,0.5-0.7C23.4,44.2,23.4,43.9,23.2,43.6L23.2,43.6z M36.7,53.3h-4.4
		c-1.8,0-3.3-1.5-3.3-3.3c0-1.8,1.5-3.3,3.3-3.3h4.4c1.8,0,3.3,1.5,3.3,3.3C40,51.8,38.5,53.3,36.7,53.3L36.7,53.3z M36.7,48.9h-4.4
		c-0.6,0-1.1,0.5-1.1,1.1s0.5,1.1,1.1,1.1h4.4c0.6,0,1.1-0.5,1.1-1.1S37.3,48.9,36.7,48.9L36.7,48.9z M51.8,42l-2.2,3.8
		c-0.9,1.6-2.9,2.1-4.5,1.2c-1.6-0.9-2.1-3-1.2-4.5l2.2-3.8c0.4-0.8,1.2-1.3,2-1.5c0.8-0.2,1.7-0.1,2.5,0.3c0.8,0.4,1.3,1.2,1.5,2
		C52.4,40.3,52.2,41.2,51.8,42L51.8,42z M49.9,39.8c-0.2-0.3-0.6-0.6-1-0.6c-0.4,0-0.8,0.2-1,0.6l-2.2,3.8c-0.3,0.5-0.1,1.2,0.4,1.5
		c0.5,0.3,1.2,0.1,1.5-0.4l2.2-3.8v0C50.1,40.5,50.1,40.1,49.9,39.8L49.9,39.8z M51.8,30.3c-0.6,1-1.7,1.7-2.9,1.7
		c-0.3,0-0.6,0-0.9-0.1c-0.8-0.2-1.6-0.8-2-1.6l-2.2-3.8c-0.9-1.6-0.4-3.6,1.2-4.5c1.6-0.9,3.6-0.4,4.5,1.2l2.2,3.8
		C52.4,28,52.4,29.3,51.8,30.3L51.8,30.3z M49.9,28.1l-2.2-3.8c-0.2-0.3-0.6-0.6-1-0.6c-0.4,0-0.8,0.2-1,0.6c-0.2,0.3-0.2,0.8,0,1.1
		l2.2,3.8c0.1,0.3,0.4,0.4,0.7,0.5c0.3,0.1,0.6,0,0.8-0.1l0,0c0.3-0.1,0.4-0.4,0.5-0.7C50.1,28.7,50,28.4,49.9,28.1L49.9,28.1z"/>
</g>
</svg>
