<?xml version="1.0" encoding="utf-8"?>
<!-- Generator: Adobe Illustrator 22.0.0, SVG Export Plug-In . SVG Version: 6.00 Build 0)  -->
<svg version="1.1" id="Calque_1" xmlns="http://www.w3.org/2000/svg" xmlns:xlink="http://www.w3.org/1999/xlink" x="0px" y="0px"
	 viewBox="0 0 69 69" style="enable-background:new 0 0 69 69;" xml:space="preserve">
<style type="text/css">
	.st0{fill:#FAC32B;}
</style>
<g>
	<path class="st0" d="M19.6,37.7c-10,0-18.1-8.1-18.1-18.1c0-10,8.1-18.1,18.1-18.1s18.1,8.1,18.1,18.1
		C37.7,29.6,29.6,37.7,19.6,37.7L19.6,37.7z M19.6,3.6c-8.8,0-16,7.2-16,16s7.2,16,16,16c8.8,0,16-7.2,16-16S28.4,3.6,19.6,3.6
		L19.6,3.6z M16.6,22.5l-2.9-10.2l9,4.5L25.5,27L16.6,22.5L16.6,22.5z M20.8,18.2L17,16.3l1.3,4.7l3.8,1.9L20.8,18.2L20.8,18.2z
		 M61.1,67.5H18.5c-3.8,0-6.4-3.1-6.4-7.5V38.8h2.1V42h6.2c1.1,0,2.1,0.4,2.9,1l3,2.4c1.1,0.9,1.8,2.2,1.8,3.7v1.3
		c0,1.8-1,3.4-2.6,4.2l-2.4,1.2c-0.9,0.4-1.4,1.3-1.4,2.3v0.5c0,1.3-0.5,2.4-1.4,3.3c-0.9,0.9-2.1,1.4-3.3,1.4h-2
		c0.7,1.3,2,2.1,3.5,2.1h12.1l1.3-2.6c0.4-0.9,1.3-1.6,2.2-1.9l1-0.3c0.4-0.1,0.8-0.5,1-0.9l0.9-1.7c0.7-1.3,2-2.1,3.4-2.1
		c1.3,0,2.5,0.6,3.2,1.7l0.5,0.7c0.3,0.5,0.8,0.8,1.4,0.8h0.2c1.3,0,2.5,0.6,3.2,1.7l0.8,1.3c0.4,0.6,0.6,1.4,0.6,2.1v1.3h5.9
		c-1-1.1-1.6-2.6-1.6-4.3v-1.7l-2.9-2.9l1.5-1.5l1.4,1.4V35.6h-3c-2.5,0-4.6-1.8-5-4.2l-0.4-2.6l-1.8-1.3c-1.6-1.2-2.6-3.1-2.6-5.1
		c0-2,1-3.9,2.6-5.1c1.6-1.2,3.5-1.8,5.4-1.8h4.8V10h-17V7.9h19.2v53.2c0,2.3,1.9,4.3,4.3,4.3s4.3-1.9,4.3-4.3v-6.4H59v-2.1h8.5v8.5
		C67.5,64.6,64.6,67.5,61.1,67.5L61.1,67.5z M17,61.1c0.7,0,1.3-0.3,1.8-0.8c0.5-0.5,0.8-1.1,0.8-1.8V58c0-1.8,1-3.4,2.6-4.2
		l2.4-1.2c0.9-0.4,1.4-1.3,1.4-2.3V49c0-0.8-0.4-1.5-1-2l-3-2.4c-0.5-0.4-1-0.6-1.6-0.6h-6.2v16c0,0.4,0,0.7,0.1,1.1H17L17,61.1z
		 M48.3,64.1c0-0.3-0.1-0.7-0.3-0.9l-0.8-1.3c-0.3-0.5-0.8-0.8-1.4-0.8h-0.2c-1.3,0-2.5-0.6-3.2-1.7l-0.5-0.7
		c-0.3-0.5-0.8-0.8-1.4-0.8c-0.7,0-1.2,0.4-1.5,0.9l-0.9,1.7c-0.4,0.9-1.3,1.6-2.2,1.9l-1,0.3c-0.4,0.1-0.8,0.5-1,0.9L33,65.4h15.3
		V64.1L48.3,64.1z M54.7,17.5h-4.8c-1.5,0-3,0.5-4.2,1.4c-1.1,0.8-1.7,2.1-1.7,3.4s0.6,2.6,1.7,3.4l2.5,1.9l0.6,3.5
		c0.2,1.4,1.5,2.5,2.9,2.5h3V17.5L54.7,17.5z M40.1,34.2L36.9,31l1.5-1.5l3.2,3.2L40.1,34.2L40.1,34.2z M45.3,42.4l-2.1-4.3l1.9-1
		l2.1,4.3L45.3,42.4L45.3,42.4z M49.5,52l-2.1-4.3l1.9-1l2.1,4.3L49.5,52L49.5,52z M21.3,52.4l-1.2-1.8l3.2-2.1l1.2,1.8L21.3,52.4
		L21.3,52.4z M30.2,50.5v-2.1h4.3v2.1H30.2L30.2,50.5z M38.4,48l-1.5-1.5l3.2-3.2l1.5,1.5L38.4,48L38.4,48z M26.4,11.4
		C24.5,9.8,22.1,9,19.6,9C13.7,9,9,13.7,9,19.6c0,2.5,0.9,4.9,2.5,6.8l-1.6,1.4c-1.9-2.3-3-5.2-3-8.2c0-7,5.7-12.8,12.8-12.8
		c3,0,5.9,1,8.2,3L26.4,11.4L26.4,11.4z M19.6,32.4c-3,0-5.9-1.1-8.2-3l1.4-1.6c1.9,1.6,4.3,2.5,6.8,2.5c5.9,0,10.6-4.8,10.6-10.6
		c0-2.5-0.9-4.9-2.5-6.8l1.6-1.4c1.9,2.3,3,5.2,3,8.2C32.4,26.6,26.6,32.4,19.6,32.4L19.6,32.4z"/>
</g>
</svg>
