<?xml version="1.0" encoding="utf-8"?>
<!-- Generator: Adobe Illustrator 22.0.0, SVG Export Plug-In . SVG Version: 6.00 Build 0)  -->
<svg version="1.1" id="Calque_1" xmlns="http://www.w3.org/2000/svg" xmlns:xlink="http://www.w3.org/1999/xlink" x="0px" y="0px"
	 viewBox="0 0 69 69" style="enable-background:new 0 0 69 69;" xml:space="preserve">
<style type="text/css">
	.st0{fill:#603E95;}
</style>
<g>
	<path class="st0" d="M51.6,62.9L51.4,63c-1.1,0.8-2.6,0.9-3.9,0.5c-1.3-0.5-2.3-1.6-2.6-2.9l-5.6-17.8l-1.1-3.4h-3.1
		c-0.2,0-0.4,0-0.7,0v0h-4.3l-1,3.3l-5.4,17.9c-0.5,1.9-2.1,3.2-4,3.2c-0.8,0-1.6-0.3-2.3-0.7l-0.2-0.1c-1.5-1.1-2.2-3-1.7-4.8l0,0
		l4.9-16l1.2-4.1c0.1-0.4,0.5-0.7,1-0.7H25l1.2-3.8c0.1-0.3,0.2-0.5,0.3-0.8c0-0.1,0-0.1-0.1-0.2l-4.7-17.9
		c-1.2-4.8,1.3-9.8,5.8-11.8c0.3-0.1,0.6-0.1,0.8,0C28.7,3,28.9,3.2,29,3.5l5.2,21.2l5-21.2c0.1-0.3,0.3-0.5,0.5-0.7
		c0.3-0.1,0.6-0.1,0.8,0c4.4,2,6.7,7,5.6,11.7L41.9,32c0.3,0.5,0.5,1,0.6,1.5l1.2,3.8H46c0.4,0,0.8,0.3,1,0.7l1.3,4.1l5,15.9l0,0
		C53.8,59.9,53.1,61.9,51.6,62.9L51.6,62.9z M29.5,37.3c-0.7-0.6-1.3-1.2-1.8-2l-0.6,2H29.5L29.5,37.3z M22.2,43.4l-4.6,15.2
		c-0.3,1,0.1,2,0.9,2.6l0.2,0.1c0.3,0.2,0.8,0.4,1.2,0.4c1,0,1.8-0.7,2.1-1.7l5-16.6H22.2L22.2,43.4z M23.5,39.4l-0.6,2h4.7l0.6-2
		H23.5L23.5,39.4z M33.8,29.2c-0.4-0.1-0.7-0.4-0.8-0.8L27.3,5.3c-3,1.8-4.4,5.4-3.6,8.9L28.4,32c0.8,3.1,3.6,5.3,6.8,5.3h6.5
		l-1-3.2c-0.8-2.5-2.9-4.3-5.5-4.8L33.8,29.2L33.8,29.2z M44.3,14.1c0.8-3.4-0.6-6.9-3.4-8.8l-5.3,22.1c1.8,0.3,3.4,1.2,4.7,2.5
		L44.3,14.1L44.3,14.1z M45.3,39.4h-4.9l0.6,2h4.9L45.3,39.4L45.3,39.4z M51.4,58.7l-4.8-15.2h-4.9L46.8,60c0.2,0.7,0.7,1.3,1.4,1.6
		c0.7,0.3,1.5,0.2,2.1-0.2l0.2-0.1C51.3,60.7,51.7,59.6,51.4,58.7L51.4,58.7z M34.5,35.3c-1.1,0-2-0.9-2-2c0-1.1,0.9-2,2-2
		c1.1,0,2,0.9,2,2C36.5,34.4,35.6,35.3,34.5,35.3L34.5,35.3z"/>
</g>
</svg>
