<?xml version="1.0" encoding="utf-8"?>
<!-- Generator: Adobe Illustrator 22.0.0, SVG Export Plug-In . SVG Version: 6.00 Build 0)  -->
<svg version="1.1" id="Calque_1" xmlns="http://www.w3.org/2000/svg" xmlns:xlink="http://www.w3.org/1999/xlink" x="0px" y="0px"
	 viewBox="0 0 69 69" style="enable-background:new 0 0 69 69;" xml:space="preserve">
<style type="text/css">
	.st0{fill:#FAC32B;}
</style>
<g>
	<path class="st0" d="M45.2,32.3c-0.6,0-1.1-0.5-1.1-1.1s0.5-1.1,1.1-1.1c0.6,0,1.1,0.5,1.1,1.1S45.8,32.3,45.2,32.3L45.2,32.3z
		 M19.4,32.3c-0.6,0-1.1-0.5-1.1-1.1s0.5-1.1,1.1-1.1s1.1,0.5,1.1,1.1S20,32.3,19.4,32.3L19.4,32.3z M48,37.8h-6
		c-0.5,0-0.9-0.3-1.1-0.8l-0.3-1.2c-0.7-2.7-3.2-4.6-6-4.6s-5.3,1.9-6,4.6L28.1,37c-0.1,0.5-0.6,0.8-1.1,0.8h-6.6
		c-5.7,0-10.2-4.7-10-10.3c0.2-5.4,4.9-9.7,10.6-9.7h27.5c5.7,0,10.2,4.7,10,10.3C58.4,33.5,53.6,37.8,48,37.8L48,37.8z M48.5,20H21
		c-4.5,0-8.2,3.4-8.3,7.5c-0.1,4.4,3.4,8,7.8,8h5.7l0.1-0.4c1-3.7,4.4-6.3,8.2-6.3s7.2,2.6,8.2,6.3l0.1,0.4H48
		c4.5,0,8.2-3.4,8.3-7.5C56.5,23.6,52.9,20,48.5,20L48.5,20z M60.8,35.4v14.3c0,6.2-5,11.1-11.1,11.1h-7.5C41.6,62.1,40.4,63,39,63
		H30c-1.5,0-2.7-0.9-3.1-2.2h-5.8c-0.6,0-1.1-0.5-1.1-1.1V53c0-0.6,0.5-1.1,1.1-1.1h5.8c0.5-1.3,1.7-2.2,3.1-2.2H39
		c1.5,0,2.7,0.9,3.1,2.2h6.4c1.8,0,3.3-1.5,3.3-3.3v-6.7c-1.3,0.3-2.6,0.5-3.9,0.5h-7.7c-1.5,0-2.8-1-3.2-2.5l-0.8-2.9
		c-0.2-0.8-0.9-1.3-1.7-1.3c-0.8,0-1.5,0.5-1.7,1.3L32,39.8c-0.4,1.5-1.7,2.5-3.2,2.5h-8.3c-8.2,0-14.7-6.7-14.5-14.9
		c0.2-7.9,7.1-14,15-14h27.5c1.1,0,2.3,0.1,3.3,0.4V7.1C51.9,6.5,52.4,6,53,6h6.7c0.6,0,1.1,0.5,1.1,1.1v13c1.5,2.4,2.3,5.2,2.2,8.2
		C62.9,30.8,62.2,33.2,60.8,35.4L60.8,35.4z M26.7,54.1h-4.5v4.5h4.5V54.1L26.7,54.1z M40.1,53c0-0.6-0.5-1.1-1.1-1.1H30
		c-0.6,0-1.1,0.5-1.1,1.1v6.7c0,0.6,0.5,1.1,1.1,1.1H39c0.6,0,1.1-0.5,1.1-1.1V53L40.1,53z M47.4,54.1h-5.1v4.5h5.1V54.1L47.4,54.1z
		 M58.5,50.4h-4.7c-0.1,0.4-0.3,0.8-0.6,1.2l3.5,3.5C57.7,53.7,58.4,52.1,58.5,50.4L58.5,50.4z M58.5,48.2V38.1
		c-1.3,1.2-2.8,2.2-4.5,2.9v7.2H58.5L58.5,48.2z M51.6,53.2c-0.6,0.4-1.3,0.7-2,0.8v4.6c2,0,3.9-0.7,5.5-1.9L51.6,53.2L51.6,53.2z
		 M58.5,8.2h-4.5v6.2c1.6,0.7,3.2,1.7,4.5,2.9V8.2L58.5,8.2z M48.5,15.6H21c-6.9,0-12.6,5.3-12.8,11.9C8,34.4,13.6,40.1,20.5,40.1
		h8.3c0.5,0,0.9-0.3,1.1-0.8l0.8-2.9c0.5-1.8,2.1-3,3.9-3c1.9,0,3.4,1.3,3.9,3l0.8,2.9c0.1,0.5,0.6,0.8,1.1,0.8H48
		c1.6,0,3.1-0.3,4.6-0.8c4.7-1.7,8.1-6,8.2-11C61,21.3,55.4,15.6,48.5,15.6L48.5,15.6z M36.7,56.3h-4.5c-0.6,0-1.1-0.5-1.1-1.1
		c0-0.6,0.5-1.1,1.1-1.1h4.5c0.6,0,1.1,0.5,1.1,1.1C37.8,55.8,37.3,56.3,36.7,56.3L36.7,56.3z M26.8,25.3l-3.3,3.3
		c-0.4,0.4-1.1,0.4-1.6,0c-0.4-0.4-0.4-1.1,0-1.6l3.3-3.3c0.4-0.4,1.1-0.4,1.6,0C27.3,24.1,27.3,24.8,26.8,25.3L26.8,25.3z
		 M52.7,25.3l-3.3,3.3c-0.4,0.4-1.1,0.4-1.6,0c-0.4-0.4-0.4-1.1,0-1.6l3.3-3.3c0.4-0.4,1.1-0.4,1.6,0C53.1,24.1,53.1,24.8,52.7,25.3
		L52.7,25.3z"/>
</g>
</svg>
