<?xml version="1.0" encoding="utf-8"?>
<!-- Generator: Adobe Illustrator 22.0.0, SVG Export Plug-In . SVG Version: 6.00 Build 0)  -->
<svg version="1.1" id="Calque_1" xmlns="http://www.w3.org/2000/svg" xmlns:xlink="http://www.w3.org/1999/xlink" x="0px" y="0px"
	 viewBox="0 0 271.5 307.8" style="enable-background:new 0 0 271.5 307.8;" xml:space="preserve">
<style type="text/css">
	.st0{clip-path:url(#SVGID_2_);fill:#F9D62B;}
	.st1{clip-path:url(#SVGID_2_);fill:#8DEB6E;}
	.st2{clip-path:url(#SVGID_2_);fill:#50AF31;}
	.st3{clip-path:url(#SVGID_2_);fill:#F2C49C;}
	.st4{clip-path:url(#SVGID_4_);fill:#35495E;}
</style>
<g>
	<defs>
		<rect id="SVGID_1_" width="271.5" height="307.8"/>
	</defs>
	<clipPath id="SVGID_2_">
		<use xlink:href="#SVGID_1_"  style="overflow:visible;"/>
	</clipPath>
	<path class="st0" d="M73.3,238.6l8.7,10l19.3-33.3l8,87.3l59.3-9.3l-16-75.3l38,28v-19.3l-33.3-28c0,0-17.3,7.3-32.7,5.3
		s-23.3-6.7-23.3-6.7L73.3,238.6z"/>
	<path class="st1" d="M72,134.6c0,0,17.8-74.4,80.7-56.7c39.7,11.2,20.2,19.6,32.7,18.7L72,134.6z"/>
	<path class="st2" d="M128.6,261.2c0,3.7-2.8,6.7-6.3,6.7c-3.5,0-6.3-3-6.3-6.7c0-3.7,2.8-6.7,6.3-6.7
		C125.8,254.6,128.6,257.6,128.6,261.2"/>
	<path class="st2" d="M141,258.6c0,3.7-2.8,6.7-6.3,6.7s-6.3-3-6.3-6.7c0-3.7,2.8-6.7,6.3-6.7S141,254.9,141,258.6"/>
	<path class="st2" d="M154.3,259.9c0,3.7-2.8,6.7-6.3,6.7c-3.5,0-6.3-3-6.3-6.7c0-3.7,2.8-6.7,6.3-6.7
		C151.5,253.2,154.3,256.2,154.3,259.9"/>
	<path class="st2" d="M169.3,83.9c0,0,52.7-20,62-14c9.3,6-44.7,22.7-44.7,22.7L169.3,83.9z"/>
	<path class="st3" d="M74.6,141.9L184,103.2c-0.7-0.3,40,50-29.3,94C86.6,211.7,74.7,135.2,74.6,141.9"/>
	<path class="st3" d="M68.6,151.9c0,0-11.3-4.7-10,4C60,164.6,74,167.2,74,167.2L68.6,151.9z"/>
	<path class="st3" d="M201.3,124.6c0,0,12.7-2,12,7.3c-0.7,9.3-10.7,11.3-10.7,11.3L201.3,124.6z"/>
</g>
<g>
	<defs>
		<rect id="SVGID_3_" width="271.5" height="307.8"/>
	</defs>
	<clipPath id="SVGID_4_">
		<use xlink:href="#SVGID_3_"  style="overflow:visible;"/>
	</clipPath>
	<path class="st4" d="M131.6,202.2c-15.5,0-28.8-4.5-34.2-9.3c-6.1-3.1-22.4-21.7-27.2-43.9c-3.9-18.2,0.4-34.7,12.8-49
		c24.3-28,50.6-28.9,68.4-24.7c17.6,4.2,30.2,13.8,32.6,15.6c0.1,0.1,0.2,0.1,0.2,0.2l0,0c0,0,0.1,0.1,0.1,0.1
		c2.6,2.2,6.5,7.9,6.5,8c3.2,4.9,7.6,13,10.2,24c1.5,6.4,2.2,13.2,2.1,20.1l0,0.3l-0.1,0.2c-10.1,36.9-32.9,50.6-50.2,55.5
		C145.6,201.3,138.4,202.2,131.6,202.2 M135.4,77.3c-18.3,0-34.8,8.4-49.4,25.2c-11.6,13.4-15.6,28.7-11.9,45.6
		c4.8,22.3,21.7,39.6,25.3,41.3l0.3,0.1l0.2,0.2c6.1,5.6,28.6,12.3,51.8,5.7c16.3-4.7,37.7-17.6,47.3-52.5c0.1-6.5-0.6-12.9-2-18.9
		c-4.2-18.2-13.5-28.1-15.3-29.8l0,0c-0.1-0.1-13.2-10.9-31.4-15.1C145.2,77.9,140.2,77.3,135.4,77.3"/>
	<path class="st4" d="M71.7,172.4c-3.3,0-7.3-1.3-11.7-4c-5-2.9-7.7-8-7.3-13.5c0.3-4.8,3.1-8.9,7-10.6c2.4-1,7.4-1.9,13.7,3.5
		c0.8,0.7,0.9,2,0.2,2.8c-0.7,0.8-2,0.9-2.8,0.2c-3.4-3-6.8-4-9.5-2.8c-2.5,1-4.3,3.8-4.5,7.1c-0.1,1.9,0.1,6.7,5.4,9.8
		c6.1,3.6,9.7,3.7,11.6,3.2c1.9-0.5,2.5-1.8,2.6-1.8c0.5-1,1.7-1.4,2.7-0.9c1,0.5,1.4,1.6,0.9,2.6c-0.1,0.3-1.4,2.8-4.9,3.9
		C73.9,172.3,72.9,172.4,71.7,172.4"/>
	<path class="st4" d="M201,145.2c-1,0-1.8-0.7-2-1.7c-0.2-1.1,0.5-2.1,1.6-2.3c2.9-0.5,10.9-2.7,12.9-6.9c0.8-1.6,0.5-3.5-0.8-5.6
		l-0.1-0.2c0,0-1.9-4.3-5.4-5.3c-2.1-0.6-4.4,0.1-7,2c-0.9,0.6-2.1,0.5-2.8-0.4c-0.6-0.9-0.4-2.1,0.4-2.8c3.6-2.6,7.2-3.5,10.5-2.6
		c5,1.4,7.6,6.5,8,7.4c1.9,3.3,2.2,6.4,0.9,9.3c-3.2,6.8-14.5,8.9-15.8,9.1C201.2,145.2,201.1,145.2,201,145.2"/>
	<path class="st4" d="M234.3,67.2c-5.4-3.7-27.1-0.1-29.7,1.2c-1.1,0.6-3.9,1.3-7.4,2.2c-7.6,2-19.2,5-31.1,10.8
		c-0.1,0.1-0.2,0.1-0.3,0.2c1.7,0.3,2.6,1.6,2.9,3c11.2-5.3,22.2-8.2,29.5-10.1c4-1,6.6-1.7,8.1-2.5c3.1-1.4,22.8-3.7,25.6-1.5
		c-0.5,1.2-4.4,6.2-36.3,19.9C120.2,122.9,71,136.7,70.5,136.8c-1.1,0.3-1.7,1.4-1.4,2.5c0.2,0.9,1,1.5,1.9,1.5c0.2,0,0.4,0,0.5-0.1
		c0.5-0.1,50-13.9,125.8-46.6c33.5-14.5,38.4-19.9,38.7-23.4C236.1,69.3,235.5,68.1,234.3,67.2"/>
	<path class="st4" d="M121.5,163.7c-0.7,0-1.4-0.4-1.8-1.1c-1.6-3.2-2.9-19.9-3.2-23.2c-0.1-1.1,0.7-2.1,1.8-2.1
		c1.1-0.1,2.1,0.7,2.1,1.8c0.7,9.4,2,20.1,2.8,21.8c0.5,1,0.1,2.2-0.9,2.7C122.1,163.6,121.8,163.7,121.5,163.7"/>
	<path class="st4" d="M144.5,159.7c-1,0-1.9-0.8-2-1.8c-0.5-5.5-1-14-1-14.1c-0.1-1.1,0.8-2.1,1.9-2.1c1.1-0.1,2,0.8,2.1,1.9
		c0,0.1,0.5,8.5,1,13.9c0.1,1.1-0.7,2.1-1.8,2.2C144.6,159.7,144.6,159.7,144.5,159.7"/>
	<path class="st4" d="M127.1,182.7c-1.9,0-3.5-0.2-4.5-0.7c-1-0.5-1.4-1.7-0.9-2.7c0.5-1,1.7-1.4,2.7-0.9c1.9,0.9,10.8-0.3,18.9-2.1
		c-0.4-0.7-0.8-1.5-1.3-2.3c-5.5-9.7-16.9-30-15-42.1l0.1-0.8l0.7-0.5c5.6-3.9,13.3-2.8,18.4-2.1c1.1,0.2,2.5,0.3,3.3,0.4
		c0.4-0.4,0.9-0.6,1.5-0.6c1.1,0,2,1,1.9,2.1c0,0.7-0.3,1.4-0.9,1.8c-1.2,1-3.1,0.8-6.4,0.3c-4.2-0.6-10.6-1.5-14.9,1
		c-1,10.9,9.9,30.2,14.6,38.6c3,5.3,3.4,6,2,7.2c-0.4,0.3-0.9,0.6-1.5,0.5C142.2,180.7,133.1,182.7,127.1,182.7 M149,130.1
		L149,130.1L149,130.1z"/>
	<path class="st4" d="M172.5,294.9c-0.2-0.9-15.5-90.6-16.5-97.4c-0.2-1.1-1.2-1.8-2.3-1.7c-1.1,0.2-1.9,1.2-1.7,2.3
		c0.9,6.5,13.9,82.1,16.2,95.6l-44.1,8.1l-0.3,0.1c-2.5,0.9-10.3,3.2-13.7,1.1c-1-0.6-1.5-1.5-1.6-2.9c-4-39.7-4.9-102-5-105.7
		c-1.2-0.4-2.3-1-3.4-1.7l-0.3,0.4c-0.1,0.1-7.8,11.2-15.5,22.4C68.6,238.7,68.8,239.8,69,241l0.2,0.9l0.7,0.5c1,0.7,7.7,6,11.9,9.4
		l2.1,1.7l1-2.5c0.1-0.2,9.1-21.6,15.2-31.5c0.7,22.7,2,56.2,4.4,80.9c0.3,2.6,1.5,4.7,3.5,5.9c1.8,1.1,4,1.5,6.2,1.5
		c4.7,0,9.6-1.7,10.8-2.1l47.8-8.8L172.5,294.9z M99.5,213.4c-5.1,6-14.2,26.5-17.3,33.6c-2.5-2.1-6.7-5.4-8.9-7.1
		c2.6-5.1,16-24.8,26.3-39.5c0.1,3.2,0.2,7.5,0.3,12.6C99.7,213.1,99.6,213.3,99.5,213.4"/>
	<path class="st4" d="M198.7,257.3l-3.3-2.4c-1.3-1-32.9-23.9-39-34.2c-0.6-0.9-0.3-2.2,0.7-2.7c0.9-0.6,2.2-0.3,2.7,0.7
		c4.6,7.7,26.2,24.2,34.6,30.5l-0.8-19L156.4,198c-0.8-0.7-0.9-2-0.2-2.8c0.7-0.8,2-0.9,2.8-0.2l38.4,33.3L198.7,257.3z"/>
	<path class="st4" d="M63.7,277.8c-0.2,0-0.4,0-0.6-0.1c-0.8-0.2-1.5-1-1.6-1.8c-0.4-2.5-11-40.4-18.4-66.6l-25.9,8.3
		c-4.4,1.9-11.2,0.2-16.8-7.7c-0.6-0.9-0.4-2.1,0.5-2.8c0.9-0.6,2.2-0.4,2.8,0.5c4.3,6.1,9.3,7.6,12.1,6.3l0.2-0.1l30-9.6l0.6,2
		c6.9,24.4,14.8,52.8,17.8,64.3c3-5.8,8.4-16.7,12-24.1c0.5-1,1.7-1.4,2.7-0.9c1,0.5,1.4,1.7,0.9,2.7
		C66.9,274.9,65.3,277.8,63.7,277.8 M61.5,275.7c0,0,0,0.1,0,0.2C61.5,275.8,61.5,275.8,61.5,275.7"/>
	<path class="st4" d="M21.5,215.8c-0.2,0-0.4,0-0.6-0.1c-9.7-3.1-12.7-14.5-12.9-15c-0.3-1.1,0.4-2.2,1.4-2.4
		c1.1-0.3,2.2,0.4,2.4,1.4c0,0.2,2.7,9.8,10.2,12.2c1.1,0.3,1.6,1.5,1.3,2.5C23.2,215.3,22.4,215.8,21.5,215.8"/>
	<path class="st4" d="M31.3,213c-0.2,0-0.3,0-0.5-0.1c-10.3-2.7-12.9-11.8-12.8-16.2c0-1.1,0.9-2,2-2c1.1,0,2,0.9,2,2
		c0,0.4,0,9.7,9.8,12.3c1.1,0.3,1.7,1.4,1.4,2.4C33,212.4,32.2,213,31.3,213"/>
	<path class="st4" d="M240,269l-5.6-1.9c-13.8-4.6-38.2-27.5-39.2-28.4c-0.8-0.8-0.8-2-0.1-2.8c0.8-0.8,2-0.8,2.8-0.1
		c0.2,0.2,19.1,17.9,32.5,25.2c-7.1-15.4-10.5-42.2-9.8-53.3l0.1-2.4l2.4,0.6c3.9,1,21.9,6,27.5,11c10.1-5.1,14.8-16.9,16.6-21.5
		c0.2-0.5,0.4-1,0.5-1.3c0.4-1,1.6-1.5,2.6-1c1,0.4,1.5,1.6,1,2.6c-0.1,0.3-0.3,0.7-0.5,1.2c-2.1,5.2-7.5,19-20.1,24.3l-1.6,0.7
		l-0.9-1.5c-1.6-2.7-14.2-7.2-23.9-9.9c-0.1,13.7,4.4,42.2,12.2,53.8L240,269z"/>
	<path class="st4" d="M245,216.5c-0.7,0-1.3-0.3-1.7-0.9c-0.6-0.9-0.3-2.2,0.6-2.8c9.5-6.1,11.8-16.3,12-17.2c0-0.2,0-0.4,0.1-0.6
		c0.4-1,1.5-1.6,2.5-1.2c0.7,0.3,1.2,0.9,1.3,1.7c0.1,0.9-2.3,13.3-13.9,20.7C245.8,216.4,245.4,216.5,245,216.5 M256.4,196.9
		c0.2,0.3,0.5,0.6,1,0.7C257,197.5,256.6,197.2,256.4,196.9"/>
	<path class="st4" d="M238.9,214.5c-0.9,0-1.7-0.6-1.9-1.4c-0.3-1.1,0.3-2.2,1.3-2.5c2.6-0.8,4.9-7.3,5.7-11.7
		c0.2-1.1,1.2-1.8,2.3-1.6c1.1,0.2,1.8,1.2,1.6,2.3c-0.4,2.2-2.6,13.1-8.5,14.8C239.3,214.5,239.1,214.5,238.9,214.5"/>
	<path class="st4" d="M67,79.7c-0.5,0-0.9-0.2-1.3-0.5l-8.3-7.3c-0.3-0.2-0.5-0.4-0.7-0.6c-0.8-1.1-0.3-2.2,0.8-4.7
		c4.1-9.2,7.1-19.4-1.3-25.8c-1.4-1.1-4.1-2.8-5.6-1.9c-3.8,2.2-3.6,16.3-2.2,25.5c0.2,1.1-0.6,2.1-1.7,2.3
		c-1.1,0.2-2.1-0.6-2.3-1.7c-0.6-4.2-3.2-25.2,4.2-29.6c2.7-1.6,6.1-0.8,10,2.2c12,9.2,5.1,24.8,2.5,30.6c-0.2,0.4-0.4,0.8-0.5,1.2
		l7.7,6.8c0.8,0.7,0.9,2,0.2,2.8C68.1,79.5,67.6,79.7,67,79.7"/>
	<path class="st4" d="M70.5,87.2c-0.3,0-0.5-0.1-0.8-0.2c-1-0.4-1.5-1.6-1-2.6l2-4.5c0.4-1,1.6-1.5,2.6-1c1,0.4,1.5,1.6,1,2.6
		l-2,4.5C72,86.8,71.3,87.2,70.5,87.2"/>
	<path class="st4" d="M90,48.7c-0.8,0-1.5-0.5-1.9-1.3C83.1,35,77.3,10.2,77.1,9.2c-0.3-1.1,0.4-2.2,1.5-2.4
		c1.1-0.3,2.2,0.4,2.4,1.5C81,8.5,87,33.8,91.9,46c0.4,1-0.1,2.2-1.1,2.6C90.5,48.7,90.2,48.7,90,48.7"/>
	<path class="st4" d="M94.5,66.7c-0.7,0-1.4-0.4-1.8-1.1l-3-6c-0.5-1-0.1-2.2,0.9-2.7c1-0.5,2.2-0.1,2.7,0.9l3,6
		c0.5,1,0.1,2.2-0.9,2.7C95.1,66.6,94.8,66.7,94.5,66.7"/>
	<path class="st4" d="M117.5,58.2c-0.9,0-1.8-0.7-2-1.6c-0.1-0.4-2-10.6-2.5-13.5l-0.4-2.3l2.3,0c3.1-0.1,6.2-3,8.7-8
		c3.9-8,5.2-20.4,0.9-26c-1.8-2.3-4.3-3.2-7.7-2.6c-4.7,0.8-7.8,2.7-9.1,5.7c-2.5,5.5,1.4,13.9,3.1,16.7c0.6,0.9,0.3,2.2-0.7,2.7
		c-0.9,0.6-2.2,0.3-2.7-0.7c-0.3-0.5-7.1-11.9-3.3-20.4c1.9-4.2,6-6.9,12-8c6.2-1.1,9.7,1.6,11.5,4.1c5.4,7.1,4,20.9-0.5,30.2
		c-2.6,5.4-6.1,8.8-9.9,9.9c0.7,4.1,2.1,11.4,2.1,11.5c0.2,1.1-0.5,2.1-1.6,2.3C117.7,58.2,117.6,58.2,117.5,58.2"/>
	<path class="st4" d="M117,69.7c-0.5,0-0.9-0.2-1.3-0.5c-0.8-0.7-0.9-2-0.2-2.8l4-4.5c0.7-0.8,2-0.9,2.8-0.2c0.8,0.7,0.9,2,0.2,2.8
		l-4,4.5C118.1,69.5,117.6,69.7,117,69.7"/>
	<path class="st4" d="M137.2,267.6c-0.8,0-1.7-0.1-2.7-0.3c-4.8-0.9-7.6-2.8-8.5-5.9c-1.7-5.9,5.5-12.8,6.3-13.6l0.2-0.2
		c2.3-1.6,5.1-1.3,7.6,0.7c3.7,3.2,6.4,10.5,4.2,15.1C143.5,265.2,141.6,267.6,137.2,267.6 M134.9,250.9c-2.1,2-5.9,6.7-5.1,9.4
		c0.5,1.8,3.2,2.6,5.4,3c2.9,0.5,4.7,0,5.5-1.5c1.3-2.8-0.6-8.2-3.1-10.4C136.1,250.3,135.3,250.7,134.9,250.9"/>
	<path class="st4" d="M133.7,251.4c-1,0-1.8-0.7-2-1.7l-1.3-8.7c-0.2-1.1,0.6-2.1,1.7-2.3c1.1-0.2,2.1,0.6,2.3,1.7l1.3,8.7
		c0.2,1.1-0.6,2.1-1.7,2.3C133.9,251.4,133.8,251.4,133.7,251.4"/>
	<path class="st4" d="M119.9,271.4c-1.1,0-2.2-0.2-3.2-0.5c-1.9-0.7-6.1-3.2-4.3-11.3c1.1-4.8,3.3-7.8,6.4-9
		c5.3-1.9,11,2.6,11.3,2.8c0.9,0.7,1,1.9,0.3,2.8c-0.7,0.9-1.9,1-2.8,0.3c-1.2-0.9-4.8-3.1-7.5-2.2c-1.8,0.6-3.1,2.7-3.8,6.1
		c-0.8,3.7-0.3,5.9,1.7,6.6c3.4,1.2,9.2-1.4,10.5-4.1c0.5-1,1.7-1.4,2.7-0.9c1,0.5,1.4,1.7,0.9,2.7
		C130.3,268.3,124.8,271.4,119.9,271.4"/>
	<path class="st4" d="M119.5,254.7c-0.7,0-1.5-0.4-1.8-1.1l-3.2-6.5c-0.5-1-0.1-2.2,0.9-2.7c1-0.5,2.2-0.1,2.7,0.9l3.2,6.5
		c0.5,1,0.1,2.2-0.9,2.7C120.1,254.7,119.8,254.7,119.5,254.7"/>
	<path class="st4" d="M149.8,268.4c-2.3,0-5.2-1-8.7-3.1c-0.9-0.6-1.3-1.8-0.7-2.7c0.6-0.9,1.8-1.3,2.7-0.7c5.3,3.2,7.3,2.6,7.9,2.2
		c0.6-0.4,1.8-1.9,1.1-7.6c-0.1-1.1-0.5-2.5-1.4-2.9c-1.7-0.8-5.4,1.2-6.8,2.3c-0.9,0.7-2.1,0.5-2.8-0.4c-0.7-0.9-0.5-2.1,0.4-2.8
		c0.6-0.5,6.4-4.6,10.7-2.7c1.5,0.6,3.3,2.2,3.8,6.1c0.7,5.9-0.2,9.7-2.9,11.4C152.3,268,151.1,268.4,149.8,268.4"/>
	<path class="st4" d="M148.5,253.5c-0.1,0-0.1,0-0.2,0c-1.1-0.1-1.9-1.1-1.8-2.2l0.5-6c0.1-1.1,1-1.9,2.2-1.8
		c1.1,0.1,1.9,1.1,1.8,2.2l-0.5,6C150.4,252.8,149.5,253.5,148.5,253.5"/>
	<path class="st4" d="M148.3,193.7c-0.3,0-0.5-0.1-0.8-0.2c-18-7.6-25.2-2.1-25.2-2c-0.8,0.7-2.1,0.6-2.8-0.2
		c-0.7-0.8-0.6-2.1,0.2-2.8c0.4-0.3,8.8-7.4,29.4,1.3c1,0.4,1.5,1.6,1.1,2.6C149.9,193.3,149.1,193.7,148.3,193.7"/>
</g>
</svg>
