<?xml version="1.0" encoding="utf-8"?>
<!-- Generator: Adobe Illustrator 19.2.1, SVG Export Plug-In . SVG Version: 6.00 Build 0)  -->
<svg version="1.1" id="Layer_1" xmlns="http://www.w3.org/2000/svg" xmlns:xlink="http://www.w3.org/1999/xlink" x="0px" y="0px"
	 viewBox="0 0 187.1 93.5" style="enable-background:new 0 0 187.1 93.5;" xml:space="preserve">
<style type="text/css">
	.st0{fill:#FFC84A;}
	.st1{fill:#F48848;}
	.st2{fill:#EB4841;}
	.st3{fill:#4EC04E;}
	.st4{fill:#A6C34C;}
	.st5{fill:#35495E;}
</style>
<g>
	<path class="st0" d="M93.5,1.4c-9.8,0-19.2,1.6-28.1,4.4l8.3,25.7c6.2-2,12.8-3.1,19.7-3.1c6.9,0,13.5,1.1,19.7,3.1l8.3-25.7
		C112.8,2.9,103.3,1.4,93.5,1.4"/>
	<path class="st1" d="M20.1,38.8l21.8,15.9c7.8-10.8,19-19,31.9-23.2L65.5,5.8C47.1,11.8,31.3,23.5,20.1,38.8"/>
	<path class="st2" d="M20.1,38.8C9.2,53.8,2.8,72.2,2.8,92.2h27c0-14,4.5-27,12.2-37.5L20.1,38.8z"/>
	<path class="st3" d="M145.1,54.7c7.7,10.5,12.2,23.5,12.2,37.5h27c0-19.9-6.5-38.4-17.4-53.3L145.1,54.7z"/>
	<path class="st4" d="M121.6,5.8l-8.3,25.7c12.9,4.2,24,12.4,31.9,23.2L167,38.8C155.8,23.5,140,11.8,121.6,5.8"/>
</g>
<path class="st5" d="M93.5,92.2c0,0,44.1,1,0-78.6C49.4,93.1,93.5,92.2,93.5,92.2z"/>
</svg>
