<?xml version="1.0" encoding="utf-8"?>
<!-- Generator: Adobe Illustrator 19.2.1, SVG Export Plug-In . SVG Version: 6.00 Build 0)  -->
<svg version="1.1" id="Calque_1" xmlns="http://www.w3.org/2000/svg" xmlns:xlink="http://www.w3.org/1999/xlink" x="0px" y="0px"
	 viewBox="0 0 1040 344" style="enable-background:new 0 0 1040 344;" xml:space="preserve">
<style type="text/css">
	.st0{fill:#50B848;}
	.st1{fill:#FFFFFF;}
</style>
<g>
	<circle class="st0" cx="492" cy="195.4" r="82.2"/>
	<g>
		<path class="st0" d="M401.7,76.9c6.4,13.3,17.6,24.2,32.3,29.7c15.6,5.8,32,4.6,45.8-1.9c-6.4-13.3-17.6-24.2-32.3-29.7
			C432,69.1,415.6,70.3,401.7,76.9z"/>
	</g>
	<g>
		<path class="st0" d="M814.1,54.6c1.2,14.7,7.8,28.9,19.5,39.3c12.4,11,28.2,15.8,43.5,14.6c-1.2-14.7-7.8-28.9-19.5-39.3
			C845.1,58.2,829.4,53.4,814.1,54.6z"/>
	</g>
	<g>
		<path class="st0" d="M518.6,91.6c10,1.6,20.5-0.5,29.3-6.7c9.4-6.5,15.1-16.3,16.7-26.7c-10-1.6-20.5,0.5-29.3,6.7
			C526,71.4,520.3,81.2,518.6,91.6z"/>
	</g>
	<circle class="st0" cx="917.2" cy="194.9" r="77.3"/>
	<circle class="st0" cx="541.5" cy="199.1" r="77.3"/>
	<circle class="st0" cx="847.5" cy="190.4" r="77.3"/>
	<circle class="st0" cx="863.7" cy="205.9" r="77.3"/>
	<circle class="st0" cx="687.8" cy="205.9" r="77.3"/>
	<circle class="st0" cx="663.1" cy="181.2" r="77.3"/>
	<circle class="st0" cx="734.8" cy="193.7" r="89.5"/>
	<circle class="st0" cx="550.1" cy="192.5" r="90.7"/>
	<polygon class="st0" points="508.1,140 499.1,141.2 484.3,75 504.5,72.2 	"/>
	<polygon class="st0" points="696.8,133.4 688.3,130.3 706.5,64.9 725.6,71.9 	"/>
	<polygon class="st0" points="882.3,146.2 874.1,142.4 897.4,78.6 915.9,87.2 	"/>
</g>
<g>
	<path class="st1" d="M461.6,211.2c2.8,1.7,9.8,4.5,16.8,4.5c10.7,0,14.9-6,14.9-11.8c0-8.7-8.3-12.5-16.7-12.5h-6.4v-10.2h6.2
		c6.4,0,14.5-2.9,14.5-10.2c0-5.1-3.6-9.3-11.8-9.3c-6,0-12,2.6-15.1,4.6l-3.2-10.1c4.2-2.8,12.5-5.7,21.2-5.7c15.3,0,23,8.4,23,18
		c0,7.7-4.5,14.1-13.6,17.2v0.2c9,1.7,16.2,8.4,16.2,18.4c0,12.5-10.4,22.3-28.7,22.3c-9,0-16.7-2.5-20.6-5.1L461.6,211.2z"/>
	<path class="st1" d="M522.2,152.7c4.9-0.9,11.6-1.5,20.6-1.5c9.9,0,17,2.1,21.7,6c4.4,3.6,7.2,9.4,7.2,16.3c0,7-2.2,12.7-6.3,16.7
		c-5.5,5.4-13.8,8-23.4,8c-2.5,0-4.7-0.1-6.6-0.5v28h-13.4V152.7z M535.6,187c1.8,0.5,3.8,0.7,6.6,0.7c10.1,0,16.2-5,16.2-13.6
		c0-8.1-5.7-12.5-15-12.5c-3.7,0-6.4,0.3-7.8,0.7V187z"/>
	<path class="st1" d="M613.8,226.8c-21,0-34.1-16-34.1-37.6c0-22.6,14.4-38.7,35.2-38.7c21.5,0,34.2,16.3,34.2,37.4
		c0,24.8-15,38.9-35.2,38.9H613.8z M614.5,216c13.1,0,20.4-12.1,20.4-27.5c0-13.9-6.9-27.1-20.4-27.1c-13.5,0-20.5,12.8-20.5,27.5
		c0,14.7,7.5,27.1,20.4,27.1H614.5z"/>
	<path class="st1" d="M723.2,195.5c-0.4-9.5-1-21-0.9-31H722c-2.4,9-5.5,19-8.8,28.3l-10.9,32H692l-9.9-31.6
		c-2.9-9.4-5.5-19.5-7.5-28.7h-0.2c-0.3,9.7-0.8,21.4-1.3,31.5l-1.6,29.7h-12.6l4.9-73.9h17.8l9.7,29.7c2.6,8.7,4.9,17.4,6.8,25.7
		h0.3c2-8,4.5-17.1,7.3-25.8l10.2-29.6h17.5l4.3,73.9h-13.2L723.2,195.5z"/>
	<path class="st1" d="M813.9,195.5c-0.4-9.5-1-21-0.9-31h-0.3c-2.4,9-5.5,19-8.8,28.3l-10.9,32h-10.3l-9.9-31.6
		c-2.9-9.4-5.5-19.5-7.5-28.7h-0.2c-0.3,9.7-0.8,21.4-1.3,31.5l-1.6,29.7h-12.6l4.9-73.9h17.8l9.7,29.7c2.6,8.7,4.9,17.4,6.8,25.7
		h0.3c2-8,4.5-17.1,7.3-25.8l10.2-29.6h17.6l4.3,73.9h-13.2L813.9,195.5z"/>
	<path class="st1" d="M883.6,192.8h-27.9v21.7h31.2v11.1h-44.6v-73.9h43v11.1h-29.5v19.1h27.9V192.8z"/>
	<path class="st1" d="M898.5,210.9c4.3,2.5,11,4.7,17.9,4.7c8.6,0,13.4-4.1,13.4-10.1c0-5.6-3.7-8.9-13.1-12.3
		c-12.3-4.3-20.1-10.9-20.1-21.4c0-12.2,10.1-21.3,26.2-21.3c8,0,13.8,1.8,17.7,3.6l-3.2,11c-2.7-1.4-7.9-3.5-14.8-3.5
		c-8.6,0-12.2,4.5-12.2,8.9c0,5.7,4.3,8.3,14.1,12.1c12.8,4.9,19,11.4,19,21.9c0,12-9,22.2-28,22.2c-7.9,0-16-2.2-20.1-4.6
		L898.5,210.9z"/>
</g>
<g>
	<path d="M101.7,237.5l-22.6-73.7h-0.6c0.8,15,1.2,25,1.2,30v43.7H61.9v-93.9H89l22.2,71.8h0.4l23.6-71.8h27.1v93.9h-18.6v-44.5
		c0-2.1,0-4.5,0.1-7.3c0.1-2.7,0.4-10,0.9-21.8h-0.6l-24.2,73.6H101.7z"/>
	<path d="M249.7,201.5c0,11.7-3.1,20.8-9.3,27.4c-6.2,6.6-14.8,9.9-25.8,9.9c-6.9,0-13-1.5-18.2-4.5c-5.3-3-9.3-7.4-12.1-13
		c-2.8-5.7-4.2-12.2-4.2-19.8c0-11.7,3.1-20.9,9.2-27.4c6.1-6.5,14.7-9.8,25.8-9.8c6.9,0,13,1.5,18.2,4.5c5.3,3,9.3,7.3,12.1,12.9
		C248.3,187.4,249.7,193.9,249.7,201.5z M200,201.5c0,7.1,1.2,12.5,3.5,16.1c2.3,3.6,6.1,5.5,11.4,5.5c5.2,0,9-1.8,11.3-5.4
		c2.3-3.6,3.4-9,3.4-16.2c0-7.1-1.2-12.4-3.5-16c-2.3-3.6-6.1-5.3-11.4-5.3c-5.2,0-9,1.8-11.3,5.3C201.2,189,200,194.3,200,201.5z"
		/>
	<path d="M332.2,237.5h-19.6v-41.9c0-5.2-0.9-9.1-2.8-11.7c-1.8-2.6-4.8-3.9-8.8-3.9c-5.5,0-9.4,1.8-11.9,5.5
		c-2.4,3.7-3.7,9.7-3.7,18.2v33.8h-19.6v-71.8h15l2.6,9.2h1.1c2.2-3.5,5.2-6.1,9-7.9c3.8-1.8,8.2-2.7,13.1-2.7
		c8.4,0,14.7,2.3,19,6.8c4.3,4.5,6.5,11,6.5,19.6V237.5z"/>
</g>
</svg>
