<?xml version="1.0" encoding="utf-8"?>
<!-- Generator: Adobe Illustrator 22.0.0, SVG Export Plug-In . SVG Version: 6.00 Build 0)  -->
<svg version="1.1" xmlns="http://www.w3.org/2000/svg" xmlns:xlink="http://www.w3.org/1999/xlink" x="0px" y="0px"
	 viewBox="0 0 199.9 255.3" style="enable-background:new 0 0 199.9 255.3;" xml:space="preserve">
<style type="text/css">
	.st0{fill:#8DEB6E;}
	.st1{fill:#F2C49C;}
	.st2{fill:#916138;}
	.st3{fill:#F9D62B;}
	.st4{fill:#35495E;}
</style>
<g id="Calque_3">
	<path class="st0" d="M130.6,217c-0.8-3.3-1.6-6.5-2.5-9.8c0.5-0.8,0.7-1.8,0.3-3l-17.3-50.8c-1.2-3.5-6.6-4-7.6,0
		c-1.6,6.7-3.1,13.4-4.4,20.1c-0.9,0.5-1.5,1.4-1.8,2.5c-1.5-2.5-3.1-4.9-4.6-7.3C89,163.2,84.8,158,80.4,153
		c-1.9-2.1-4.4-1.3-5.7,0.5c-2.3-0.9-5.6,0.2-5.5,3.5c0.5,22.2,0.2,44.4-0.8,66.5c-2.1,1.6-2.7,4.9,0.3,6.2
		c6.7,2.8,13.4,3.1,20.5,2.7c8.3-0.5,16.6-1.3,24.9-2.4c3.7-0.5,7.4-1,11.1-1.6c2.5-0.4,4.7-0.9,6-3.3
		C132.4,222.6,131.2,219.5,130.6,217z M83.1,177.5c0-0.7,0-1.4-0.1-2c0.3,0.5,0.5,1.1,0.8,1.6C83.5,177.2,83.3,177.4,83.1,177.5z
		 M76.5,216.7c0.2,0.6,0.4,1.1,0.6,1.6c-0.2,0.1-0.5,0.1-0.7,0.2C76.4,217.9,76.5,217.3,76.5,216.7z"/>
	<g>
		<path class="st1" d="M32.4,87.8C32.4,87.8,32.4,87.8,32.4,87.8C32.3,88,32.3,88,32.4,87.8z"/>
		<path class="st1" d="M150.7,93.2c-0.7,0-1.2,0.1-1.8,0.3c-1.3-2.1-3.5-3.7-6.8-3.7c-2.8,0-4.8,1.1-6.2,2.8c0.1-3-0.9-5.8-3.2-7.6
			c0,0,0.1,0,0.2,0c0,0-0.1-0.1-0.4-0.2c-0.6-0.4-1.2-0.7-1.9-1c-2.7-1.4-7.3-4.1-11.1-7.3c-0.3-0.8-0.5-1.7-0.6-2.5
			c-0.3-1.9-2.2-4-3.8-5c-0.4-0.2-0.8-0.4-1.3-0.6c0-0.1-0.1-0.2-0.1-0.3c-0.2,0-0.3,0.1-0.5,0.1c-1.5-0.4-3.2-0.5-4.6-0.1
			c-0.6,0.2-1.2,0.5-1.8,0.8c-4.5-0.5-7.6-3.9-5-14.6c-2.6,0.5-5.5,1.3-8.5,2.1c-1.1-3.7-5.4-5.8-9-5.3c-2.9,0.4-4.9,2-6.1,4.2
			c-1.3,0.3-2.5,0.8-3.5,1.5c-1.3-2-1.5-0.6-1.8,1.9c-0.5,0.7-0.9,1.5-1.1,2.5c-0.2,1.1-0.3,2.2-0.1,3.3c-0.6,1.5-1.4,2.9-2.8,3.5
			c-0.5-0.5-1-0.9-1.7-1.3c-2.8-1.6-6.8-1.4-9.5,0.6c-0.4,2.4-1.2,4.6-3.1,6.3c-1.7,1.5-3.9,2-6.1,1.8c-0.3,0.4-0.7,0.8-1.1,1.2
			c-9.5,1-14.5,10.1-15.1,11.2c0.1,2,2.9,65.1,60.3,62.9c30.1-1.2,37.8-23.2,39.5-41.5c0.2-0.7,0.4-1.3,0.6-2c0.3,0.4,0.6,0.8,1,1.2
			c0.6,0.4,1.1,0.9,1.7,1.3c1.3,0.8,2.7,1.1,4.2,1.1c0.3,0,0.5,0.1,0.8,0c1-0.1,2-0.2,2.9-0.4c0.9-0.2,1.8-0.7,2.6-1
			c0.3-0.1,0.5-0.3,0.8-0.5c1-0.5,1.8-1.2,2.3-2.2c0.3-0.3,0.6-0.7,0.8-1.1c0.7-0.2,1.2-0.5,1.7-0.8C158.3,104,158,93.2,150.7,93.2z
			"/>
	</g>
	<path class="st1" d="M31.7,103.5c-0.7-2-1.9-4-3.8-5c-1.8-1-3.6-1.2-5.5-1c-1.2-0.7-2.6-1.1-4.3-1.1c-5,0-7.6,3.6-8,7.4
		c-0.6,1.7-0.8,3.7-0.3,5.3c0.7,2,1.9,4,3.8,5c2.1,1.1,4.1,1.3,6.4,0.8c2-0.4,3.9-0.8,5.9-1.1c2-0.4,4-2.2,5-3.8
		C31.9,108.1,32.3,105.5,31.7,103.5z"/>
	<path class="st2" d="M61.3,145.6c-2.4-0.6-4.8-1.3-7.2-1.9c-0.1-1.5-0.6-3.1-1.7-4.1c-1.2-1.1-2.4-2.2-3.5-3.4
		c-0.5-0.6-1.3-1-2.1-1.3c-0.5-2.1-1.8-3.3-3.3-3.9c-0.1-1-0.5-2-1.1-2.8c-0.3-2-1.4-3.4-3-4.2c-0.5-1.7-1.1-3.5-1.6-5.2
		c-1.3-4.4-5.9-5-8.9-3.2c-4-1.8-10,1.3-8.3,6.7c1.4,4.7,2.1,9.4,2.1,14.2c-1,0.1-1.8,0.3-2.5,0.7l-0.1,0c-1.5-0.4-3.2-0.2-4.5,0.6
		c-1.2,0.7-2.4,2.1-2.7,3.5c-0.3,1.5-0.3,3.2,0.6,4.5c0.8,1.3,2,2.3,3.5,2.7c0.8,0.2,1.6,0.5,2.5,0.7c1.2,0.4,2.6,0.2,3.8-0.2
		c-0.6,0.9-1.2,1.8-1.8,2.7c-1.7,2.7-0.5,6.5,2.1,8.1c2.9,1.7,6.3,0.6,8.1-2.1c1.8-2.8,3.7-5.4,5.8-7.9c0.1,2.8,0.1,5.8,1.8,8.1
		c2,2.6,4.9,3.4,8,3.6c2.4,0.2,4.7-1.6,5.5-3.9c0.2,0.1,0.4,0.1,0.5,0.2c2.1,0.6,3.8,0.1,5-0.9c2.9,0.7,6.4-1.1,7.1-4.2
		C66.1,149.8,64.5,146.5,61.3,145.6z"/>
	<path class="st2" d="M150,68.8c-0.3-3.6-1.6-7.1-4.2-9.7c0.3-2.2,0-4.3-1.2-6.5c-0.9-1.8-2.3-3.5-3.6-5.1c0.6-2.4,0.2-5-1.2-7.2
		c-1.9-3-5.1-4.5-8.1-6.2c-0.6-0.3-1.2-0.6-1.9-0.7c-0.4-2.1-1.4-4-3.7-5.7c-2.4-1.8-5.6-2.9-8.8-3.5c-0.7-4.1-1.8-8.6-6-9.7
		c-2.4-0.6-4.8,0.3-7,1c-1.7,0.6-3.4,1.3-5,2.1c-1.9-2.5-4.7-4.1-8.3-5.5c-0.8-2-2.5-3.5-5.3-3.5c-2.4,0-4.1,1.2-4.9,2.8
		c-1.5,0.4-2.9,0.9-4.3,1.6c-0.6-0.1-1.3-0.2-2-0.2c-3.1-3-7.1-1.4-8.9,1.5c-1.8,0.7-3.6,1.7-5.3,2.8c0.1-2.7-1.4-5.3-4.2-6.1
		c-2.8-0.8-6.7,1-7.2,4.1c0,0,0,0-0.1,0.1c0,0,0,0,0,0c0,0,0,0,0,0c-0.2,0.1-0.7,0.3-0.8,0.4c-1.1,0.7-2.2,1.4-3.3,2.1
		c-1.6,1.1-2.9,2.2-4.2,3.5c-3-1.2-6.7-0.3-7.6,3.7c-0.4,1.7-0.5,3.6-0.9,5.4c-0.4,0.7-0.6,1.5-0.7,2.4c0,0.1,0,0.2-0.1,0.3
		c0,0,0,0.1,0,0.1c-1.1,2.4-2.4,1.9-4.9,2.5c-5.7,1.4-7.5,6.4-9.8,11.2c-1.6,3.3,0,6.4,2.4,8c0.1,0.8,0.2,1.6-0.1,2.3
		c-0.6,1.5-2.7,2.8-3.6,4.3c-1.1,1.9-1.5,4.1-1.6,6.2c-0.1,1.4,0.7,3.8,0.2,5c-0.5,1.2-3,2.3-3.9,3.6c-2.6,4.1-0.1,8.3,1.7,12
		c1.2,2.4,3.2,3.2,5.2,3c2.8,3.7,10.5,2.5,10.8-3.6c0-0.7,0.1-1.4,0.1-2c1.3-0.4,2.7-0.8,3.1-0.9c3-1,5.5-2.2,7.6-4.7
		c2.6-3.1,4-7.2,4.6-11.3c2.5,3.3,7.1,1.9,9.1-1.2c3,0.1,6-1.8,6-5.5c0.4,0,0.7,0.1,1.1,0c2.8,3.4,9.1,3.6,10.1-1.8
		c0.7-3.6,1.3-7.1,2-10.7c3.3,1.5,7,1.4,10.5-1.7c1.5-1.3,2.7-2.9,3.8-4.6c2.7,3.4,5.6,6.6,9.4,8.6c1.9,1,3.9,1.7,6.1,2
		c0.3,0,0.5,0,0.8,0.1c0,0.6,0,1.2,0.1,1.6c0.3,1.3,0.6,2.6,1.2,3.8c1.3,2.4,3.1,4.4,5.6,5.5c2.9,1.3,6,1.1,8.5-0.2
		c2.6,4,5.1,8.3,8.4,11.7c3.7,3.8,9,6.5,13.4,9.4c6.3,4.2,12.2-6,6-10.2c-0.1-0.1-0.3-0.2-0.5-0.3c0.2-0.2,0.3-0.5,0.4-0.7
		C148,73.8,150.2,71.6,150,68.8z"/>
	<path class="st2" d="M156.9,142.4c-0.7-0.9-1.8-1.5-2.4-2.3c-0.1-0.1-0.1-0.1-0.2-0.2c0.1-0.2,0.2-0.5,0.3-0.9
		c1.4-5.4-4.5-8.6-8.4-6.9c-0.1-0.1-0.2-0.3-0.4-0.4c-0.7-0.7-1.7-1.3-2.8-1.6c-0.1-2-1.1-3.7-2.6-4.8c0.1-0.7,0.1-1.4,0.2-2
		c0.2-2.9,0.1-5.7-0.1-8.6c0.1-0.6,0.1-1.2,0.1-1.8c0-1.9-3-1.9-3,0c0,0,0,0.1,0,0.1c-0.1,0.2-0.2,0.5-0.2,0.8c0,0.2,0,0.5,0.1,0.7
		c-0.1,0.4-0.1,0.7-0.2,1.1c-0.4,0.2-0.8,0.5-1,0.9c-0.6,1.5-1.3,3-1.9,4.6c-0.2,0.5-0.1,0.9,0.1,1.2c-0.5,1-1.1,1.9-1.6,2.8
		c-0.2,0.3-0.2,0.5-0.2,0.8c-0.2,0.3-0.4,0.6-0.6,1c-2.3,4.7-5.2,8.6-9.1,12.1c-2.4,2.1-2.2,6.2,0,8.3c3.9,3.9,8.7,5.4,13.9,6.7
		c2.8,0.7,5,1.6,7.5,2.9c2,1.1,4.3,2.4,6.7,2.3c4.9-0.3,7.3-5.7,7.6-10C158.9,146.9,158.4,144.5,156.9,142.4z"/>
	<path class="st3" d="M170.7,209.7c-1.6-3-5.8-4.4-8.9-3.2c-1.4-1.5-3.3-2.4-5.3-2.3c-4.1,0.2-7.2,3.2-7.4,7.4
		c-0.2,4,0.1,8.1,2.1,11.6c2.2,3.8,6.2,6.7,10.7,6.7c4.9,0,9.5-2.9,10.9-7.7C174.2,217.7,172.8,213.6,170.7,209.7z"/>
	<path class="st0" d="M63.2,152c-13.3,3.5-23.8,13.7-27.7,26.9c-0.6,2.1,0.4,3.6,1.9,4.4c-1.4,4.1,4.8,7.4,7.1,3.2
		c5-9,12-16.4,20.8-21.9c2.2-1.4,2.2-3.9,1.1-5.6C69.8,156.9,67.7,150.8,63.2,152z"/>
	<path class="st1" d="M133,192.5c-1.1,0-2,0.4-2.6,1c-5.2-1.9-10.6-2.6-16.1-2.1c-5,0.4-5.1,8.3,0,7.9c5.1-0.4,9.9,0.2,14.6,2
		c1.7,0.6,3,0.1,3.9-1c0.1,0,0.1,0,0.2,0C138.1,200.4,138.1,192.5,133,192.5z"/>
	<path class="st0" d="M145.2,161.4c-8.3-4.2-17-7.1-25-12.1c-4.3-2.7-8.2,4-4.1,6.7c-0.5,0.6-0.9,1.4-0.8,2.5c0.1,3.5,0.9,6.8,4,8.8
		c3.7,2.4,8.8,3.4,13,4.7c4.9,1.5,9.9,2.9,14.8,4.3c3,0.8,6.5,1.9,8.8-0.9C160.8,169.6,149.2,163.5,145.2,161.4z M124,160.5
		c2.4,1.2,4.9,2.3,7.4,3.4C128.6,163.1,125.5,162.1,124,160.5z"/>
</g>
<g id="Calque_2">
	<g>
		<path class="st4" d="M83.4,154.7c-10.1,0-19.2-3.1-27.1-9.1c-24.3-18.7-28.9-59.1-29.1-60.8c-0.1-0.5,0.1-1.1,0.4-1.5
			s0.8-0.7,1.4-0.7c8.3-0.6,12.4-5,12.9-13.8c0-0.8,0.6-1.5,1.3-1.8c0.8-0.3,1.6,0,2.1,0.6c4.2,4.9,6.2,5,6.9,4.8
			c1.1-0.3,3.1-2.2,4.7-11.4c0.1-0.7,0.6-1.3,1.3-1.5c0.7-0.2,1.4-0.1,1.9,0.4c5.5,4.7,7.7,4.4,8.4,4c0.9-0.4,2.9-2.6,2.3-13.3
			c0-0.8,0.4-1.6,1.2-1.9c0.8-0.3,1.7-0.1,2.2,0.5c1.2,1.4,2.9,2.9,4.4,2.6c1.2-0.3,3.6-1.9,6.3-10.4c0.3-0.9,1.1-1.5,2.1-1.4
			c0.9,0.1,1.7,0.8,1.8,1.7c0.6,5.3,2.2,8.6,4.5,9.8c2.4,1.3,6.2,0.7,11.1-1.8c0.7-0.3,1.5-0.3,2.1,0.2c0.6,0.5,0.9,1.2,0.7,2
			c-2.2,9.9-0.5,12.5,0.4,13.1c1,0.7,3.7,1.3,11-2.9c0.6-0.4,1.4-0.4,2,0c0.6,0.4,1,1.1,0.9,1.8c-0.7,9.4,5,15.6,17.3,18.8
			c0.8,0.2,1.4,0.9,1.5,1.7c0.1,0.6,1.7,15.5-3.4,31.5c-4.8,15-16.5,33.8-45.4,38.2C88.9,154.5,86.1,154.7,83.4,154.7z M31.5,86.2
			c1.2,8.3,7.3,40.8,27.3,56.2c9.1,7,19.9,9.6,32.3,7.7c21.6-3.3,35.8-15.2,42.2-35.5c4-12.6,3.6-24.7,3.4-28.6
			c-11.9-3.4-18.2-9.8-18.9-19.1c-5.6,2.7-9.7,3.1-12.4,1.1c-2.9-2.1-3.7-6.4-2.6-13.4c-4.5,1.7-8.2,1.8-11.2,0.2
			c-2.3-1.2-3.9-3.3-5.1-6.3c-2,4.2-4.2,6.4-6.9,7c-1.5,0.3-3,0-4.6-0.8c-0.1,7.1-1.6,11.1-4.6,12.6c-2.6,1.3-6,0.5-10.1-2.5
			c-1.5,7-3.6,10.4-6.9,11.3c-2.4,0.7-5.1-0.3-8.1-3C43.8,80.5,39,85,31.5,86.2z"/>
	</g>
	<g>
		<path class="st4" d="M87.3,118.5c-0.8,0-1.5-0.5-1.8-1.2c-0.4-1,0.1-2.2,1.1-2.6l8.2-3.3c-2.8-5.7-9.5-21-4.3-27.5
			c5.1-6.4,13.2-4.5,16.8-2.6c1,0.5,1.3,1.7,0.8,2.7c-0.5,1-1.7,1.3-2.7,0.8l0,0c-0.3-0.2-7.5-3.9-11.9,1.5
			c-3.4,4.2,1.7,17.7,5.7,25.2c0.3,0.5,0.3,1.1,0.1,1.6c-0.2,0.5-0.6,0.9-1.1,1.2L88,118.4C87.8,118.5,87.5,118.5,87.3,118.5z"/>
	</g>
	<g>
		<path class="st4" d="M66.1,91.9c-0.5,0-0.9-0.2-1.3-0.5c-0.8-0.7-0.9-2-0.1-2.8c0.3-0.3,7.8-8.5,16.5-5.3c1,0.4,1.5,1.5,1.2,2.5
			c-0.4,1-1.5,1.5-2.5,1.2c-6.2-2.2-12.2,4.2-12.2,4.3C67.2,91.7,66.7,91.9,66.1,91.9z"/>
	</g>
	<g>
		<path class="st4" d="M18.1,118.2c-2.8,0-5.4-0.6-7.4-1.8c-2.5-1.5-6.6-5.2-5.2-13.8c0.8-4.5,2.8-7.6,6.2-9.3
			c7.9-4,20,2.2,20.5,2.4c1,0.5,1.3,1.7,0.8,2.6c-0.5,1-1.7,1.3-2.6,0.8c-3-1.5-11.9-5-17-2.4c-2.2,1.1-3.5,3.2-4.1,6.5
			c-0.8,4.8,0.3,8.1,3.2,9.8c5,2.9,14.1,0.8,20.9-4.8c0.8-0.7,2.1-0.6,2.8,0.3c0.7,0.8,0.6,2.1-0.3,2.8
			C30.6,115.7,23.8,118.2,18.1,118.2z"/>
	</g>
	<g>
		<path class="st4" d="M141.1,111.2c-2,0-3.6-0.6-4.8-1.8c-0.7-0.8-0.7-2,0.1-2.8c0.8-0.7,2-0.7,2.8,0.1c0.6,0.7,2.5,0.9,5.4-0.2
			c5.7-2,12-7.4,12.3-12.3c0.1-1.2-0.3-1.7-0.7-2c-2.7-2.3-11.6-1-16.6,0.3c-1,0.3-2.1-0.3-2.4-1.4c-0.3-1,0.3-2.1,1.4-2.4
			c1.5-0.4,14.9-3.8,20.1,0.5c1.6,1.3,2.3,3.1,2.1,5.3c-0.5,6.7-8,13.3-15,15.7C144.2,110.9,142.5,111.2,141.1,111.2z"/>
	</g>
	<g>
		<path class="st4" d="M154.2,183.7c-0.3,0-0.6-0.1-0.8-0.2c-10.4-4.9-27.4-12.1-31.6-12.1c-1.1,0-2-0.9-2-2c0-1.1,0.9-2,2-2
			c5.6,0,24.5,8.4,31.2,11.5l3-10.9L118.8,149c-1-0.5-1.3-1.7-0.9-2.6c0.5-1,1.7-1.3,2.6-0.9l38.6,19.8c0.8,0.4,1.2,1.4,1,2.3
			l-4.1,14.7c-0.2,0.6-0.5,1-1.1,1.3C154.7,183.7,154.5,183.7,154.2,183.7z"/>
	</g>
	<g>
		<path class="st4" d="M130.5,202.1c-0.2,0-0.4,0.1-0.6,0.1c-0.9,0-1.6-0.2-2.2-0.6c-0.5,0-1-0.1-1.4-0.3c2.5,12.8,3.3,22.3,3.6,27
			c-3.9-0.7-10.3,0.3-19.3,3.1c-16.4,5.1-38.3,0.4-44.1-1l3.3-80.7c0-1.1-0.8-2-1.9-2c0,0-0.1,0-0.1,0c-1,0-1.9,0.8-2,1.9l-3.4,82.3
			c0,0.9,0.6,1.7,1.4,2c0.8,0.2,14.1,3.9,29,3.9c6.3,0,12.9-0.7,18.9-2.5c14.5-4.5,18-3,18.5-2.7c0.4,0.7,1.1,1.1,2,1
			c1-0.1,1.7-0.9,1.8-1.9C134,231.4,134,220.1,130.5,202.1z"/>
		<path class="st4" d="M124.1,191c0.6-0.3,1.2-0.6,2-0.6c0.8,0,1.4,0.2,2,0.5c-3.2-13.2-8.2-28.9-15.8-45.8c-0.4-1-1.6-1.4-2.6-1
			c-1,0.4-1.4,1.6-1,2.6C116.1,163,120.9,178.1,124.1,191z"/>
		<path class="st4" d="M130.1,232.1C130.1,232.1,130.1,232.1,130.1,232.1C130.1,232.1,130.1,232.1,130.1,232.1z"/>
		<path class="st4" d="M130.1,232C130.1,232,130.1,232,130.1,232C130.1,232,130.1,232,130.1,232z"/>
	</g>
	<g>
		<path class="st4" d="M98.2,179.6c-0.9,0-1.7-0.6-1.9-1.5c-1.3-6.1-11-19-14.6-23.4c-0.7-0.8-0.6-2.1,0.3-2.8
			c0.8-0.7,2.1-0.6,2.8,0.3c0.4,0.5,7,8.6,11.4,16.2c0.2-6.7,1.1-13.4,4-19.9c0.4-1,1.6-1.4,2.6-1c1,0.4,1.4,1.6,1,2.6
			c-3.9,8.7-3.9,18-3.6,27.5c0,1-0.7,1.9-1.7,2C98.4,179.6,98.3,179.6,98.2,179.6z"/>
	</g>
	<g>
		<path class="st4" d="M43.6,191.2c-0.2,0-0.3,0-0.5-0.1c-0.5-0.1-11.1-3.1-12.7-10.7c-0.1-0.5,0-1,0.3-1.5
			c16.4-25,35.4-27.7,36.2-27.8c1.1-0.1,2.1,0.6,2.2,1.7c0.1,1.1-0.6,2.1-1.7,2.2c-0.2,0-17.8,2.7-32.9,25.3
			c1.2,3.3,5.7,5.6,8.4,6.6c3-3.9,13.3-16.4,23.6-20.4c1-0.4,2.2,0.1,2.5,1.1c0.4,1-0.1,2.2-1.1,2.5c-10.9,4.2-22.5,20-22.7,20.1
			C44.8,191,44.2,191.2,43.6,191.2z"/>
	</g>
	<g>
		<path class="st4" d="M88.1,136.9c-8.5,0-18.6-2.9-26.6-13.8c-0.2,1.2-0.2,2.4-0.2,3.3c0.1,1.1-0.8,2-1.8,2.1
			c-1.1,0.1-2-0.7-2.1-1.8c0-0.6-0.3-6,2.2-8.9c0.4-0.5,1-0.7,1.6-0.7c0.6,0,1.2,0.4,1.5,0.9c15.5,24.7,40.7,11.8,41.8,11.3
			c1-0.5,2.1-0.1,2.7,0.8c0.5,1,0.1,2.1-0.8,2.7C106.1,132.7,98.2,136.9,88.1,136.9z"/>
	</g>
	<g>
		<path class="st4" d="M78.1,108.3c-0.7,0-1.4-0.4-1.8-1.1c-1.5-2.9-2.8-11.6-2.9-12.5c-0.2-1.1,0.6-2.1,1.7-2.2
			c1.1-0.2,2.1,0.6,2.2,1.7c0.5,3.4,1.7,9.6,2.5,11.4c0.5,1,0.1,2.2-0.9,2.6C78.7,108.2,78.4,108.3,78.1,108.3z"/>
	</g>
	<g>
		<path class="st4" d="M104.7,106.6c-0.6,0-1.2-0.3-1.6-0.8c-3-4.1-3.4-13-3.4-14.1c0-1.1,0.8-2,1.9-2c1.1,0,2,0.8,2,1.9
			c0.1,2.4,0.8,9.2,2.7,11.9c0.6,0.9,0.4,2.1-0.4,2.7C105.5,106.5,105.1,106.6,104.7,106.6z"/>
	</g>
	<g>
		<path class="st4" d="M160.4,232c-1.2,0-2.5-0.1-3.6-0.4c-6.6-1.4-10.6-6.6-11.1-14.2c-0.1-1-1-11.2,5.4-15.1
			c5.1-3.1,12.7-1.2,23.3,5.8c0.1,0.1,0.2,0.1,0.2,0.2c4.7,4.2,6,9.3,3.6,14.1C175.3,228,167.6,232,160.4,232z M156.6,204.8
			c-1.5,0-2.6,0.4-3.4,0.9c-3.7,2.2-3.8,9-3.5,11.4c0,0,0,0.1,0,0.1c0.3,5.9,3.1,9.6,8,10.6c6.2,1.3,14.5-2.2,17.1-7.2
			c1.6-3.1,0.7-6.2-2.6-9.3C164.6,206.3,159.7,204.8,156.6,204.8z"/>
	</g>
	<g>
		<path class="st4" d="M159.6,221.6c-0.1,0-0.1,0-0.2,0c-0.6-0.1-1.2-0.4-1.5-0.9l-6.5-10.2c-0.6-0.9-0.3-2.1,0.6-2.7
			c0.9-0.6,2.1-0.3,2.7,0.6l5.1,8.1l5.1-5.6c0.7-0.8,2-0.9,2.8-0.1c0.8,0.7,0.9,2,0.1,2.8l-6.8,7.5
			C160.7,221.4,160.2,221.6,159.6,221.6z"/>
	</g>
	<g>
		<path class="st4" d="M157.2,173.4c-1-0.4-2.1,0.2-2.5,1.2c-0.4,1,0.2,2.1,1.2,2.5c0.3,0.1,29.8,10.4,34.3,24.9
			c-11.9-2.4-21.1,2.1-23,3.1c1.3,0.6,2,1.9,2.1,3.3c2.2-1.1,11.5-5.2,22.8-1.9c0.6,0.2,1.3,0,1.8-0.4c0.5-0.4,0.8-1,0.7-1.7
			C193.3,186,158.7,173.9,157.2,173.4z"/>
	</g>
	<g>
		<path class="st4" d="M36.8,222.2c-4.2,0-7.2-1.2-9.1-3.5c-7.3-8.9,5.9-30.7,7.4-33.1c0.6-0.9,1.8-1.2,2.7-0.6
			c0.9,0.6,1.2,1.8,0.6,2.7c-5.2,8.3-11.9,23.5-7.7,28.6c2.7,3.3,10.5,2.7,22.1-1.7c10.9-4.2,20.3-8.5,28.7-12.3
			c27.2-12.5,45.2-20.7,72.7-4.3c0.9,0.6,1.2,1.8,0.7,2.7c-0.6,0.9-1.8,1.2-2.7,0.7c-25.7-15.4-42-7.9-69.1,4.5
			c-8.4,3.8-17.9,8.2-28.9,12.4C47,220.8,41.2,222.2,36.8,222.2z"/>
	</g>
	<g>
		<path class="st4" d="M130.6,205.2c-0.4,0-0.7-0.1-1.1-0.3c-11.6-7.4-32-5.9-32.2-5.8c-1.1,0.1-2-0.7-2.1-1.8
			c-0.1-1.1,0.7-2,1.8-2.1c0.9-0.1,21.3-1.6,34,6c2.5-0.6,4.6-2.9,4.9-4.8c0.1-0.7,0.1-1.8-1.7-2.6c-1-0.4-1.4-1.6-1-2.6
			c0.4-1,1.6-1.4,2.6-1c2.9,1.3,4.4,3.8,4,6.8c-0.6,4-4.6,7.7-9,8.3C130.8,205.2,130.7,205.2,130.6,205.2z"/>
	</g>
	<g>
		<path class="st4" d="M152.8,250.6c-0.7,0-1.4-0.4-1.7-1c-7.2-12.9-3.4-23.7-3.2-24.2c0.4-1,1.5-1.5,2.5-1.2c1,0.4,1.5,1.5,1.2,2.5
			c-0.1,0.4-3.3,9.6,2.9,20.9c0.5,0.9,0.2,2.1-0.8,2.7C153.5,250.6,153.1,250.6,152.8,250.6z"/>
	</g>
	<g>
		<path class="st4" d="M158.6,246.5c-0.6,0-1.2-0.3-1.6-0.8c-5.3-7.5-2.8-16-2.7-16.4c0.3-1,1.4-1.6,2.5-1.3c1,0.3,1.6,1.4,1.3,2.4
			c0,0.1-2,7.1,2.1,13c0.6,0.9,0.4,2.1-0.5,2.7C159.4,246.4,159,246.5,158.6,246.5z"/>
	</g>
	<g>
		<path class="st4" d="M164.8,245.2c-0.5,0-1.1-0.2-1.4-0.6c-5.5-5.9-3.3-13.8-3.2-14.2c0.3-1,1.4-1.7,2.4-1.4
			c1,0.3,1.6,1.4,1.4,2.4c0,0.1-1.6,6.2,2.3,10.4c0.7,0.8,0.7,2-0.1,2.8C165.7,245,165.2,245.2,164.8,245.2z"/>
	</g>
	<g>
		<path class="st4" d="M46.3,165.3c0,0-0.1,0-0.1,0c-0.3,0-6.4-0.4-9.4-4.5c-0.6-0.8-1-1.7-1.3-2.7c-5.7,4.8-10.4,6.3-13.5,4.4
			c-2-1.2-3.9-4.1-2.6-11.1c-5.4,1.4-9.1,0.9-11.1-1.4c-1.8-2-1.9-5.1-0.3-8.3c1.9-3.8,6.2-7.7,11.2-7.4c1.2,0.1,1.5-0.3,1.6-0.5
			c1.6-2.4-1.4-11-3.9-16.1c-0.5-1-0.1-2.2,0.9-2.6c1-0.5,2.2-0.1,2.6,0.9c1.2,2.5,7,15,3.6,20.1c-0.8,1.1-2.3,2.4-5.2,2.2
			c-3-0.2-6.1,2.5-7.4,5.2c-0.8,1.7-0.9,3.2-0.3,3.9c0.9,1.1,4.1,1.5,10.2-0.7c0.7-0.2,1.5-0.1,2,0.4c0.5,0.5,0.7,1.3,0.5,2
			c-1.8,6.4-1.1,9.4,0,10c1.2,0.7,5,0,12.1-6.9c0.6-0.6,1.6-0.7,2.3-0.3c0.8,0.4,1.1,1.3,1,2.2c-0.4,1.8-0.2,3.2,0.6,4.3
			c1.9,2.5,6.4,2.9,6.5,2.9c1.1,0.1,1.9,1,1.8,2.1C48.2,164.5,47.4,165.3,46.3,165.3z"/>
	</g>
	<g>
		<path class="st4" d="M14.2,95.7c-0.6,0-1.3-0.3-1.6-0.9c-0.9-1.4-9-13.7-5.6-20.5c0.7-1.4,2.1-3,5.1-3.7
			c-1.3-5.2-1.5-12.3,1.7-15.7c0.9-1,2.1-1.6,3.4-1.8c-0.9-4.5-2-13.1,2.4-17.1c2.2-2,5.3-2.4,9.3-1.4c-0.3-9.5,1.4-15.1,5.3-17.1
			c3.1-1.6,6.6-0.2,8.7,1C47.1,10.6,51,6.9,55,6.9c0,0,0,0,0,0c2.8,0,5.3,1.8,7.5,5.3c4.1-5.2,7.7-7.5,11.2-7.2
			c2.5,0.3,4.7,2,6.5,5.1C85,5.7,89,4,92.5,4.9c3.1,0.8,5.4,3.7,6.9,8.6c6.8-4,11.4-4.9,14.8-2.9c3,1.7,4.6,5.5,4.7,11.6
			c5.3-1.3,9-0.8,11.2,1.4c2,2,2.7,5,1.9,9.3c3.6-0.1,7.5,0.4,9.4,3.3c1.5,2.4,1.3,5.7-0.8,10.2c2.7,0.3,4.6,1.3,5.8,2.9
			c1.6,2.2,1.7,5.4,0.3,9.7c2.9,0.3,5,1.3,6.1,3.2c1.9,3.1,1,7.9-3,14.9c3,2.4,4.3,4.6,4.2,6.9c-0.2,3.3-3.4,5.4-6.6,7
			c-1,0.5-2.2,0.1-2.7-0.8c-0.5-1-0.1-2.2,0.8-2.7c2.9-1.5,4.4-2.8,4.5-3.8c0-0.5-0.3-1.9-4-4.5c-0.9-0.6-1.1-1.7-0.6-2.6
			c5.1-8.6,4.4-11.5,3.9-12.4c-0.8-1.4-3.4-1.5-5.5-1.3c-0.7,0-1.3-0.3-1.7-0.8c-0.4-0.6-0.5-1.3-0.2-1.9c1.8-4.1,2.2-7.2,1.2-8.6
			c-1-1.4-3.7-1.5-5.7-1.3c-0.7,0-1.4-0.3-1.8-0.9c-0.4-0.6-0.4-1.4,0-2c3.4-5.9,3-8.2,2.5-9.1c-0.5-0.8-2.3-2-8.4-1.3
			c-0.7,0.1-1.3-0.2-1.7-0.7c-0.4-0.5-0.6-1.2-0.4-1.8c1.1-4.1,1-6.9-0.2-8.1c-1.4-1.4-4.9-1.3-9.9,0.2c-0.6,0.2-1.3,0.1-1.8-0.3
			c-0.5-0.4-0.8-1-0.8-1.6c0.2-5.9-0.8-9.6-2.7-10.7c-2.2-1.3-6.6,0.1-13,4.2c-0.5,0.3-1.2,0.4-1.8,0.2c-0.6-0.2-1-0.8-1.2-1.4
			c-1.1-4.9-2.8-7.8-4.8-8.3c-2.3-0.6-5.9,1.6-10.3,6.2c-0.5,0.5-1.1,0.7-1.8,0.6c-0.7-0.1-1.2-0.6-1.5-1.2C77,12,75.4,9.2,73.4,9
			c-1.3-0.1-4.3,0.7-9.4,8c-0.4,0.6-1.1,0.9-1.8,0.8c-0.7-0.1-1.3-0.5-1.6-1.1c-1.3-2.7-3.3-5.9-5.6-5.9c0,0,0,0,0,0
			c-1.5,0-4.8,1.5-9.7,11.4c-0.3,0.5-0.8,0.9-1.4,1c-0.6,0.1-1.2,0-1.7-0.4c-1-0.8-4.3-3-6.4-1.9c-1.2,0.6-3.9,3.5-3,16.3
			c0,0.7-0.3,1.3-0.8,1.7c-0.5,0.4-1.3,0.5-1.9,0.2c-2.6-1.1-6.2-2-8-0.3c-3.3,3-1.5,12.6-0.6,15.7c0.2,0.7,0,1.4-0.5,1.9
			c-0.5,0.5-1.2,0.7-1.9,0.5c-1.5-0.4-2.1,0-2.5,0.5c-2.1,2.3-1.8,9.4-0.2,14c0.2,0.6,0.1,1.2-0.2,1.7c-0.3,0.5-0.9,0.8-1.5,0.9
			c-3.3,0.2-3.9,1.5-4.2,1.9c-1.8,3.6,2.3,12,5.4,16.5c0.6,0.9,0.4,2.1-0.5,2.7C15,95.6,14.6,95.7,14.2,95.7z"/>
	</g>
	<g>
		<path class="st4" d="M145.5,161.5c-1.8,0-2.8-0.4-2.9-0.4c-1-0.4-1.5-1.5-1.1-2.5c0.4-1,1.5-1.5,2.5-1.1c0.2,0.1,5.1,1.7,13-5.4
			c2.5-2.2,5.1-5.5,3.8-8.4c-1.2-2.6-5-4.1-6.3-4.2c-0.6,0.4-1.4,0.4-2,0c-0.9-0.5-1.2-1.6-0.7-2.5c0.9-1.7,0.6-4.9-0.4-5.7
			c-0.8-0.6-2.6,0.1-4.7,2c-1.5,1.3-2.9,0.8-3.4,0.5c-1-0.5-4.1-2.2-1.9-25.4c0.1-1.1,1.1-1.9,2.1-1.8c1.1,0.1,1.9,1.1,1.8,2.1
			c-0.8,8.1-1,17.5-0.3,20.8c4.4-3.3,7.2-2.6,8.8-1.3c2.1,1.7,2.7,5,2.3,7.7c3,0.7,7.5,3.2,8.7,7.5c1,3.8-0.7,7.7-5.2,11.7
			C153.5,160.4,148.5,161.5,145.5,161.5z M155,139C155,139,155,139,155,139C155,139,155,139,155,139z M145.3,130.4L145.3,130.4
			L145.3,130.4z"/>
	</g>
</g>
</svg>
