<?xml version="1.0" encoding="utf-8"?>
<!-- Generator: Adobe Illustrator 22.0.0, SVG Export Plug-In . SVG Version: 6.00 Build 0)  -->
<svg version="1.1" id="Calque_1" xmlns="http://www.w3.org/2000/svg" xmlns:xlink="http://www.w3.org/1999/xlink" x="0px" y="0px"
	 viewBox="0 0 110 16" style="enable-background:new 0 0 110 16;" xml:space="preserve">
<style type="text/css">
	.st0{fill-rule:evenodd;clip-rule:evenodd;fill:#F7F7F7;}
	.st1{fill-rule:evenodd;clip-rule:evenodd;fill:#70D84E;}
	.st2{fill-rule:evenodd;clip-rule:evenodd;fill:#FF8840;}
</style>
<g>
	<polygon class="st0" points="5,6 95,6 95,10 5,10 5,6 	"/>
	<polygon class="st1" points="5,6 70,6 70,10 5,10 5,6 	"/>
	<path class="st0" d="M100,1c3.9,0,7,3.1,7,7s-3.1,7-7,7c-3.9,0-7-3.1-7-7S96.1,1,100,1L100,1z"/>
	<path class="st2" d="M70,1c3.9,0,7,3.1,7,7c0,3.9-3.1,7-7,7c-3.9,0-7-3.1-7-7C63,4.1,66.1,1,70,1L70,1z"/>
	<path class="st1" d="M40,1c3.9,0,7,3.1,7,7c0,3.9-3.1,7-7,7c-3.9,0-7-3.1-7-7C33,4.1,36.1,1,40,1L40,1z"/>
	<path class="st1" d="M10,1c3.9,0,7,3.1,7,7s-3.1,7-7,7c-3.9,0-7-3.1-7-7S6.1,1,10,1L10,1z"/>
</g>
</svg>
