<?xml version="1.0" encoding="utf-8"?>
<!-- Generator: Adobe Illustrator 22.0.0, SVG Export Plug-In . SVG Version: 6.00 Build 0)  -->
<svg version="1.1" id="Calque_1" xmlns="http://www.w3.org/2000/svg" xmlns:xlink="http://www.w3.org/1999/xlink" x="0px" y="0px"
	 viewBox="0 0 110 16" style="enable-background:new 0 0 110 16;" xml:space="preserve">
<style type="text/css">
	.st0{fill-rule:evenodd;clip-rule:evenodd;fill:#F7F7F7;}
</style>
<g>
	<path class="st0" d="M100,1c-3.2,0-5.8,2.1-6.7,5H76.7c-0.9-2.9-3.5-5-6.7-5c-3.2,0-5.8,2.1-6.7,5H46.7c-0.9-2.9-3.5-5-6.7-5
		c-3.2,0-5.8,2.1-6.7,5H16.7c-0.9-2.9-3.5-5-6.7-5C6.1,1,3,4.1,3,8s3.1,7,7,7c3.2,0,5.8-2.1,6.7-5h16.6c0.9,2.9,3.5,5,6.7,5
		c3.2,0,5.8-2.1,6.7-5h16.6c0.9,2.9,3.5,5,6.7,5c3.2,0,5.8-2.1,6.7-5h16.6c0.9,2.9,3.5,5,6.7,5c3.9,0,7-3.1,7-7S103.9,1,100,1z"/>
</g>
</svg>
